<svg width="67" height="41" viewBox="0 0 67 41" fill="none" xmlns="http://www.w3.org/2000/svg">
<path d="M33.2307 14.7731C32.1035 14.8086 30.9913 15.0417 29.9446 15.4617C30.4228 16.4014 31.0172 17.1787 31.7354 17.8987C32.2024 18.3657 32.7009 18.7626 33.2289 19.0876L33.2307 14.7731ZM12.9822 27.2623L9.82715 40.0653H13.8019L16.8924 27.2623H12.9822ZM30.0738 40.0653L27.4246 27.2623H23.4517L16.8296 40.0653H20.6751L21.4948 38.4887H25.9865L26.2246 40.0653H30.0738ZM25.5951 35.965H22.632L24.9028 31.298L25.6099 35.9798L25.5951 35.965ZM44.2005 27.2623H32.7212L32.1544 30.5411H35.939L34.2997 40.0653H38.2098L39.8492 30.5411H43.571L44.2005 27.2623ZM56.0583 40.0653L53.4091 27.2623H49.4362L42.8141 40.0653H46.6615L47.4811 38.4887H51.9747L52.2128 40.0653H56.0583ZM51.5796 35.965H48.6165L50.8873 31.298L51.5962 35.9872L51.5796 35.965ZM46.0005 13.1891C44.7987 17.2267 41.4239 20.4131 37.1335 21.5743C37.2941 22.5952 39.0295 24.866 41.5846 24.866H53.411C53.9464 24.866 54.515 24.5189 54.9562 24.1091C55.3974 23.6992 56.0288 22.9423 56.3759 22.4051H45.4652C44.9612 22.4051 44.6768 21.5226 45.6848 21.5226H57.2897C57.9525 21.4913 59.4663 20.0716 59.7506 19.442H47.2947C47.1824 19.4348 47.077 19.385 47 19.3029C46.923 19.2208 46.8802 19.1124 46.8802 18.9999C46.8802 18.8873 46.923 18.779 47 18.6969C47.077 18.6147 47.1824 18.565 47.2947 18.5577H60.5703C61.3272 18.3694 62.3685 17.5497 62.9057 16.4771H49.1556C48.5556 16.4771 48.5556 15.5928 49.1556 15.5928H63.5352C64.6078 15.4027 65.9629 14.0476 66.31 13.1965L46.0005 13.1891ZM21.6222 22.4051H10.7096C11.0567 22.9423 11.6881 23.6992 12.1293 24.1091C12.5705 24.5189 13.1373 24.866 13.6745 24.866H25.5009C28.0542 24.866 29.7895 22.5952 29.9501 21.5743C25.6615 20.4131 22.2868 17.2267 21.0849 13.1891L0.777344 13.1984C1.12442 14.0494 2.47949 15.4045 3.5521 15.5947H17.9317C18.5299 15.5947 18.5299 16.479 17.9317 16.479H4.18348C4.72071 17.5516 5.76009 18.3713 6.51701 18.5596H19.7926C19.905 18.5668 20.0103 18.6166 20.0873 18.6987C20.1643 18.7808 20.2071 18.8892 20.2071 19.0017C20.2071 19.1143 20.1643 19.2226 20.0873 19.3048C20.0103 19.3869 19.905 19.4366 19.7926 19.4439H7.3367C7.61916 20.0753 9.13485 21.4931 9.79577 21.5245H21.4006C22.4105 21.5226 22.1262 22.4051 21.6222 22.4051ZM29.688 14.8599C30.816 14.4132 32.0141 14.1694 33.2271 14.1399V10.1707H28.6671C28.6985 11.8138 29.0769 13.4568 29.688 14.8599ZM26.52 17.0033C27.2647 16.221 28.1447 15.58 29.1175 15.111C28.4385 13.5524 28.071 11.876 28.0357 10.1762H23.4314C23.4997 12.8938 24.5834 15.279 26.52 17.0033ZM32.9538 19.6248C32.3457 19.2715 31.786 18.8408 31.2886 18.3436C30.5195 17.5718 29.8799 16.6809 29.3945 15.7054C28.5065 16.1319 27.696 16.6987 27.0092 17.3873C28.6154 18.6574 30.7366 19.479 32.9538 19.6248ZM33.2271 5.55532C32.014 5.52668 30.8158 5.2829 29.688 4.83532C29.0491 6.31877 28.7024 7.91158 28.6671 9.52638H33.2271V5.55532ZM29.9446 4.23533C30.9913 4.65538 32.1035 4.88846 33.2307 4.92394L33.2289 0.61134C32.6862 0.947791 32.1849 1.34683 31.7354 1.80026C31.0154 2.51841 30.4228 3.29564 29.9446 4.23533ZM29.1175 4.58425C28.1447 4.11526 27.2647 3.47418 26.52 2.69195C24.5834 4.41625 23.4997 6.80331 23.4332 9.52084H28.0375C28.0671 7.77254 28.4695 6.06855 29.1175 4.58425ZM31.2886 1.35349C31.8184 0.823647 32.3446 0.43411 32.9538 0.0722656C30.7348 0.218111 28.6135 1.03965 27.0074 2.30979C27.696 2.99841 28.5046 3.56333 29.3926 3.99163C29.8793 3.01642 30.5194 2.1257 31.2886 1.35349ZM33.8566 14.1417C35.0696 14.1704 36.2679 14.4142 37.3956 14.8617C38.0346 13.3783 38.3812 11.7855 38.4166 10.1707H33.8547L33.8566 14.1417ZM35.3501 17.8987C36.0683 17.1787 36.6609 16.4014 37.1409 15.4617C36.0942 15.0417 34.982 14.8086 33.8547 14.7731V19.0857C34.3827 18.7626 34.8812 18.3657 35.3501 17.8987ZM43.6522 10.1762H39.048C39.0118 11.8764 38.6443 13.5533 37.9661 15.1128C38.9395 15.5818 39.8201 16.2229 40.5655 17.0051C42.5002 15.279 43.5858 12.8938 43.6522 10.1762ZM34.1298 19.6248C36.3489 19.479 38.4683 18.6574 40.0763 17.3873C39.3809 16.6963 38.5739 16.1277 37.6892 15.7054C37.2038 16.6809 36.5642 17.5718 35.795 18.3436C35.298 18.8413 34.7383 19.272 34.1298 19.6248ZM37.3975 4.83717C36.2695 5.28389 35.0713 5.52764 33.8584 5.55717V9.52823H38.4203C38.3836 7.91339 38.0363 6.32072 37.3975 4.83717ZM35.3501 1.80026C34.9006 1.34683 34.3993 0.947791 33.8566 0.61134V4.92394C34.9838 4.88846 36.0961 4.65538 37.1427 4.23533C36.6785 3.33346 36.0734 2.51144 35.3501 1.80026ZM39.048 9.52084H43.6522C43.5858 6.80331 42.5002 4.41625 40.5655 2.69195C39.8205 3.47463 38.9398 4.11577 37.9661 4.58425C38.6141 6.06855 39.0166 7.77254 39.048 9.52084ZM37.691 3.99163C38.5809 3.56333 39.3895 2.99656 40.0781 2.30979C38.4701 1.03965 36.3489 0.218111 34.1298 0.0722656C34.739 0.43411 35.2652 0.823647 35.795 1.35349C36.563 2.12149 37.1815 2.98733 37.691 3.99163Z" fill="#BFDCFF"/>
</svg>
