<svg width="73" height="57" viewBox="0 0 73 57" fill="none" xmlns="http://www.w3.org/2000/svg">
<path d="M53.7448 37.6175C53.4111 37.5685 53.0775 37.5441 52.7469 37.5441C50.6716 37.5441 48.6881 38.4838 47.3749 40.1336L47.029 40.5652C43.9314 44.4587 39.1073 46.5677 34.1425 46.1943C31.0815 46.6381 29.5113 48.8696 28.7032 50.9908C28.2716 52.1295 28.0573 53.2345 27.9532 54.015C27.9471 54.064 27.941 54.1099 27.9349 54.1589C23.6251 52.4723 19.8325 49.7511 16.8695 46.2984L16.9614 46.2708L29.0582 42.3314C24.225 40.605 19.1285 39.7265 13.9984 39.7265C13.9586 39.7265 13.5852 39.7602 12.9821 39.8183C12.8964 39.8245 12.8046 39.8336 12.7128 39.8428C10.411 40.0663 4.59822 40.403 0.873047 40.7795V40.1673L33.4935 33.7607H33.518C34.1731 33.6567 34.5802 33.6138 34.6812 33.6383L39.9858 34.4678L47.7361 32.9435C49.6798 32.4262 51.7154 33.3659 52.5785 35.1779L53.7448 37.6175Z" fill="#1C4FB5"/>
<path d="M11.8438 37.6602L12.1376 37.5898L11.8438 37.6602Z" fill="#1C4FB5"/>
<path d="M72.6889 8.25684L72.643 8.74965L53.3743 21.8383L48.1034 31.4588L40.7969 32.9311L48.7339 18.2386L58.2841 14.2594L61.6389 12.8605L72.6889 8.25684Z" fill="#1C4FB5"/>
<path d="M66.1232 28.0673C66.1232 43.4608 53.708 55.9495 38.3451 56.0658C38.2716 56.0688 38.1982 56.0688 38.1247 56.0688C38.0023 56.0688 37.8829 56.0688 37.7605 56.0658C35.8596 56.0413 33.9986 55.827 32.2049 55.4413C31.3325 55.2546 30.4754 55.0281 29.6367 54.7588L29.6581 54.5751C30.255 54.7526 30.8642 54.9057 31.4794 55.0373C33.1568 55.3985 34.8924 55.5975 36.6677 55.6219H37.2156C51.5623 55.5117 63.1633 43.8465 63.1633 29.4692C63.1633 27.1062 62.848 24.8196 62.2603 22.6464C61.8777 21.22 61.3757 19.8425 60.7665 18.5233L60.6778 18.3488L63.5734 16.3806C64.2193 17.7825 64.755 19.2487 65.159 20.767C65.7896 23.0933 66.1232 25.542 66.1232 28.0673Z" fill="#FF000D"/>
<path d="M60.9194 11.8198L57.5065 13.2401L57.4208 13.1238C52.7957 7.35084 45.7678 3.58587 37.8522 3.33182C37.6379 3.32569 37.4236 3.31957 37.2094 3.31651H36.6676C22.3821 3.50017 10.8516 15.1379 10.8516 29.4692C10.8516 31.9027 11.1852 34.2596 11.8066 36.4972L11.4607 36.6012C11.3842 36.3962 11.3352 36.2431 11.3168 36.1758C11.3138 36.1696 11.3107 36.1696 11.3107 36.1635C10.5393 33.6015 10.123 30.8834 10.123 28.0673C10.123 12.7259 22.4648 0.267809 37.7603 0.0719086C37.8828 0.0688477 38.0021 0.0688477 38.1246 0.0688477C38.195 0.0688477 38.2684 0.0688477 38.3388 0.0719086C38.5684 0.0749695 38.8011 0.0810914 39.0306 0.0902743C48.0451 0.378003 55.9852 4.92045 60.898 11.78L60.9194 11.8198Z" fill="#FF000D"/>
</svg>
