<svg width="89" height="37" viewBox="0 0 89 37" fill="none" xmlns="http://www.w3.org/2000/svg">
<path d="M64.3242 26.0546L73.4957 0.459717H78.1881L69.7631 26.0546H64.3242ZM83.0938 26.0546L74.7043 0.459717H79.61L88.7815 26.0546H83.0938ZM69.1588 16.1366H83.5203V20.4024H69.1588V16.1366Z" fill="#BFDCFF"/>
<path d="M51.4993 26.3746C48.1815 26.3746 45.5272 25.64 43.5365 24.1706C41.5458 22.6776 40.3845 20.5803 40.0527 17.8786H45.3139C45.4798 19.2531 46.1434 20.3433 47.3046 21.149C48.4659 21.9311 49.947 22.3221 51.7482 22.3221C53.2175 22.3221 54.3432 22.0614 55.1252 21.5401C55.931 21.0187 56.3339 20.3196 56.3339 19.4427C56.3339 18.6133 56.0969 17.9497 55.6229 17.452C55.1489 16.9306 54.3313 16.5159 53.1701 16.2078L48.4066 14.8925C45.9656 14.2053 44.1763 13.2691 43.0388 12.0842C41.9249 10.8756 41.368 9.37067 41.368 7.56955C41.368 6.02912 41.7591 4.70199 42.5411 3.58814C43.3469 2.45059 44.4726 1.58558 45.9182 0.993105C47.3639 0.376934 49.0583 0.0688477 51.0016 0.0688477C53.9877 0.0688477 56.3694 0.779815 58.1469 2.20175C59.9243 3.59999 60.9315 5.46035 61.1685 7.78285H55.9073C55.6703 6.5268 55.0897 5.60254 54.1654 5.01007C53.2649 4.4176 52.1036 4.12136 50.6817 4.12136C49.4494 4.12136 48.4659 4.35835 47.7312 4.83233C46.9965 5.30631 46.6292 5.94618 46.6292 6.75194C46.6292 7.36811 46.8306 7.93689 47.2335 8.45826C47.6364 8.95594 48.4777 9.38252 49.7574 9.73801L54.5209 11.0533C57.033 11.7406 58.8341 12.6885 59.9243 13.8972C61.0381 15.0821 61.5951 16.587 61.5951 18.4118C61.5951 20.9713 60.7063 22.9383 58.9289 24.3128C57.1515 25.6874 54.675 26.3746 51.4993 26.3746Z" fill="#BFDCFF"/>
<path d="M23.4162 26.4103C21.5203 26.4103 19.7665 26.0904 18.155 25.4505C16.5672 24.8106 15.1808 23.9101 13.9959 22.7488C12.8346 21.5639 11.9222 20.1656 11.2586 18.5541C10.6188 16.9189 10.2988 15.1178 10.2988 13.1507C10.2988 10.5439 10.8558 8.26877 11.9696 6.32546C13.0835 4.35845 14.6239 2.82987 16.5909 1.73972C18.5816 0.649567 20.8448 0.104492 23.3806 0.104492C25.9638 0.104492 28.2389 0.649567 30.2059 1.73972C32.1729 2.82987 33.7134 4.35845 34.8272 6.32546C35.9648 8.29247 36.5335 10.5794 36.5335 13.1863C36.5335 15.1296 36.2017 16.9189 35.5382 18.5541C34.8983 20.1656 33.9859 21.5639 32.801 22.7488C31.6397 23.9101 30.2533 24.8106 28.6418 25.4505C27.054 26.0904 25.3121 26.4103 23.4162 26.4103ZM23.3806 22.0734C24.8737 22.0734 26.189 21.6942 27.3265 20.9358C28.4641 20.1775 29.3528 19.1347 29.9926 17.8076C30.6562 16.4567 30.988 14.8926 30.988 13.1152C30.988 11.3615 30.6681 9.8329 30.0282 8.52946C29.3883 7.22602 28.4996 6.21881 27.3621 5.50785C26.2245 4.79688 24.8974 4.44139 23.3806 4.44139C21.8876 4.44139 20.5723 4.79688 19.4348 5.50785C18.2972 6.21881 17.4085 7.22602 16.7686 8.52946C16.1525 9.8092 15.8444 11.3378 15.8444 13.1152C15.8444 14.9163 16.1643 16.4923 16.8042 17.8431C17.4441 19.1703 18.3328 20.213 19.4703 20.9714C20.6079 21.7061 21.9113 22.0734 23.3806 22.0734Z" fill="#BFDCFF"/>
<path d="M0.207031 26.0546V0.459717H5.68148V26.0546H0.207031Z" fill="#BFDCFF"/>
<path d="M88.482 34.9506C88.1055 34.9506 87.8251 34.8603 87.6406 34.6797C87.4601 34.4953 87.3698 34.2168 87.3698 33.8441V31.291L88.2342 30.9683V33.8729C88.2342 34.0035 88.2707 34.1015 88.3437 34.1668C88.4167 34.2321 88.5301 34.2648 88.6838 34.2648C88.7414 34.2648 88.7952 34.259 88.8451 34.2475C88.8951 34.236 88.945 34.2225 88.995 34.2072V34.8642C88.945 34.891 88.8739 34.9122 88.7817 34.9275C88.6934 34.9429 88.5935 34.9506 88.482 34.9506ZM86.8223 32.605V31.948H88.995V32.605H86.8223Z" fill="#BFDCFF"/>
<path d="M85.2905 34.8873V31.9481H86.155V34.8873H85.2905ZM85.2617 31.5562V30.6226H86.1838V31.5562H85.2617Z" fill="#BFDCFF"/>
<path d="M83.4637 34.8873V34.236L83.5214 34.2476C83.483 34.4589 83.3677 34.6279 83.1756 34.7547C82.9873 34.8815 82.7606 34.9449 82.4955 34.9449C82.2266 34.9449 81.9922 34.8834 81.7924 34.7605C81.5965 34.6337 81.4447 34.4569 81.3371 34.2303C81.2296 34.0036 81.1758 33.7366 81.1758 33.4292C81.1758 33.118 81.2315 32.8471 81.3429 32.6166C81.4543 32.3861 81.6099 32.2074 81.8097 32.0806C82.0134 31.9538 82.2496 31.8904 82.5186 31.8904C82.7991 31.8904 83.0258 31.9557 83.1986 32.0864C83.3754 32.217 83.4791 32.3957 83.5099 32.6223L83.4465 32.6281V30.7378H84.3109V34.8873H83.4637ZM82.7722 34.2533C82.9758 34.2533 83.141 34.1822 83.2678 34.0401C83.3946 33.8941 83.458 33.6866 83.458 33.4177C83.458 33.1487 83.3927 32.9432 83.262 32.801C83.1353 32.655 82.9681 32.582 82.7606 32.582C82.5609 32.582 82.3956 32.655 82.265 32.801C82.1382 32.947 82.0748 33.1545 82.0748 33.4234C82.0748 33.6924 82.1382 33.8979 82.265 34.0401C82.3956 34.1822 82.5647 34.2533 82.7722 34.2533Z" fill="#BFDCFF"/>
<path d="M78.5558 34.9448C78.3483 34.9448 78.1697 34.9007 78.0198 34.8123C77.8738 34.7201 77.7624 34.599 77.6856 34.4492C77.6087 34.2955 77.5703 34.1245 77.5703 33.9363V31.948H78.4348V33.7692C78.4348 33.9305 78.4751 34.0515 78.5558 34.1322C78.6365 34.2129 78.7498 34.2533 78.8958 34.2533C79.0265 34.2533 79.1417 34.2225 79.2416 34.161C79.3415 34.0996 79.4203 34.015 79.4779 33.9075C79.5394 33.796 79.5701 33.6693 79.5701 33.5271L79.645 34.236C79.549 34.4473 79.4088 34.6183 79.2243 34.7489C79.0399 34.8795 78.8171 34.9448 78.5558 34.9448ZM79.5874 34.8872V34.1956H79.5701V31.948H80.4346V34.8872H79.5874Z" fill="#BFDCFF"/>
<path d="M73.0859 34.8873L74.5728 30.7378H75.3336L73.9677 34.8873H73.0859ZM76.1289 34.8873L74.7688 30.7378H75.5641L77.051 34.8873H76.1289ZM73.8697 33.2793H76.198V33.9709H73.8697V33.2793Z" fill="#BFDCFF"/>
<path d="M68.64 36.0687L69.4526 34.2705L69.6024 34.0227L70.3631 31.948H71.2853L69.5044 36.0687H68.64ZM69.2624 34.8296L68.1328 31.948H69.0664L69.9943 34.576L69.2624 34.8296Z" fill="#BFDCFF"/>
<path d="M67.1715 34.9506C66.795 34.9506 66.5145 34.8603 66.3301 34.6797C66.1495 34.4953 66.0592 34.2168 66.0592 33.8441V31.291L66.9237 30.9683V33.8729C66.9237 34.0035 66.9602 34.1015 67.0332 34.1668C67.1062 34.2321 67.2195 34.2648 67.3732 34.2648C67.4308 34.2648 67.4846 34.259 67.5346 34.2475C67.5845 34.236 67.6345 34.2225 67.6844 34.2072V34.8642C67.6345 34.891 67.5634 34.9122 67.4712 34.9275C67.3828 34.9429 67.2829 34.9506 67.1715 34.9506ZM65.5117 32.605V31.948H67.6844V32.605H65.5117Z" fill="#BFDCFF"/>
<path d="M63.641 34.9449C63.3144 34.9449 63.0301 34.8815 62.7881 34.7547C62.546 34.624 62.3578 34.4435 62.2233 34.2129C62.0927 33.9824 62.0273 33.7173 62.0273 33.4176C62.0273 33.1141 62.0927 32.849 62.2233 32.6223C62.3578 32.3918 62.5441 32.2131 62.7823 32.0863C63.0205 31.9557 63.2972 31.8904 63.6122 31.8904C63.9157 31.8904 64.1789 31.9519 64.4018 32.0748C64.6246 32.1977 64.7975 32.3687 64.9204 32.5877C65.0434 32.8067 65.1049 33.0641 65.1049 33.36C65.1049 33.4215 65.1029 33.4791 65.0991 33.5329C65.0953 33.5828 65.0895 33.6309 65.0818 33.677H62.5345V33.1064H64.3845L64.2346 33.2101C64.2346 32.9719 64.177 32.7971 64.0617 32.6857C63.9503 32.5704 63.7966 32.5128 63.6007 32.5128C63.374 32.5128 63.1973 32.5896 63.0705 32.7433C62.9475 32.897 62.8861 33.1275 62.8861 33.4349C62.8861 33.7346 62.9475 33.9574 63.0705 34.1034C63.1973 34.2494 63.3855 34.3224 63.6353 34.3224C63.7736 34.3224 63.8927 34.2994 63.9926 34.2533C64.0925 34.2072 64.1674 34.1322 64.2173 34.0285H65.0299C64.9339 34.3128 64.7687 34.5376 64.5343 34.7028C64.3038 34.8642 64.006 34.9449 63.641 34.9449Z" fill="#BFDCFF"/>
<path d="M60.152 34.8873V31.7521C60.152 31.3986 60.248 31.1316 60.4401 30.951C60.6322 30.7705 60.9166 30.6802 61.2931 30.6802C61.3738 30.6802 61.4429 30.684 61.5005 30.6917C61.562 30.6994 61.6216 30.7128 61.6792 30.732V31.3948C61.6523 31.3833 61.6197 31.3756 61.5812 31.3718C61.5428 31.3641 61.4967 31.3602 61.4429 31.3602C61.2969 31.3602 61.1893 31.3948 61.1202 31.464C61.051 31.5331 61.0164 31.633 61.0164 31.7636V34.8873H60.152ZM59.6621 32.6051V31.9481H61.6158V32.6051H59.6621Z" fill="#BFDCFF"/>
<path d="M58.3712 34.8872C58.3481 34.8027 58.3308 34.7124 58.3193 34.6164C58.3116 34.5203 58.3078 34.4089 58.3078 34.2821H58.2847V32.8932C58.2847 32.7741 58.2444 32.6819 58.1637 32.6165C58.0869 32.5474 57.9716 32.5128 57.8179 32.5128C57.6719 32.5128 57.5547 32.5378 57.4664 32.5877C57.3818 32.6377 57.3261 32.7107 57.2992 32.8067H56.4751C56.5135 32.5416 56.6499 32.3226 56.8843 32.1497C57.1187 31.9768 57.4395 31.8904 57.8467 31.8904C58.2694 31.8904 58.5921 31.9845 58.815 32.1728C59.0378 32.361 59.1492 32.6319 59.1492 32.9854V34.2821C59.1492 34.3781 59.155 34.4761 59.1665 34.576C59.1819 34.6721 59.2049 34.7758 59.2357 34.8872H58.3712ZM57.3454 34.9449C57.0534 34.9449 56.8209 34.8719 56.648 34.7259C56.4751 34.576 56.3887 34.3781 56.3887 34.1322C56.3887 33.8595 56.4905 33.6405 56.6941 33.4752C56.9016 33.3062 57.1897 33.1967 57.5586 33.1467L58.4173 33.0257V33.5271L57.7027 33.6366C57.549 33.6597 57.4356 33.7019 57.3626 33.7634C57.2896 33.8249 57.2531 33.9094 57.2531 34.017C57.2531 34.113 57.2877 34.186 57.3569 34.236C57.426 34.2859 57.5182 34.3109 57.6335 34.3109C57.8141 34.3109 57.9678 34.2629 58.0946 34.1668C58.2213 34.0669 58.2847 33.9517 58.2847 33.821L58.3654 34.2821C58.2809 34.5011 58.1522 34.6663 57.9793 34.7777C57.8064 34.8891 57.5951 34.9449 57.3454 34.9449Z" fill="#BFDCFF"/>
<path d="M54.1214 34.939C53.5835 34.939 53.1532 34.8199 52.8304 34.5817C52.5077 34.3397 52.3194 33.9997 52.2656 33.5617H53.1186C53.1455 33.7845 53.253 33.9612 53.4413 34.0919C53.6296 34.2187 53.8697 34.282 54.1617 34.282C54.3999 34.282 54.5824 34.2398 54.7092 34.1553C54.8398 34.0707 54.9051 33.9574 54.9051 33.8152C54.9051 33.6808 54.8667 33.5732 54.7899 33.4925C54.713 33.408 54.5805 33.3407 54.3922 33.2908L53.62 33.0775C53.2242 32.9661 52.9342 32.8144 52.7497 32.6223C52.5692 32.4263 52.4789 32.1823 52.4789 31.8903C52.4789 31.6406 52.5423 31.4254 52.669 31.2449C52.7997 31.0604 52.9822 30.9202 53.2165 30.8242C53.4509 30.7243 53.7256 30.6743 54.0407 30.6743C54.5248 30.6743 54.9109 30.7896 55.1991 31.0201C55.4872 31.2468 55.6505 31.5484 55.6889 31.9249H54.836C54.7976 31.7213 54.7034 31.5714 54.5536 31.4754C54.4076 31.3793 54.2193 31.3313 53.9888 31.3313C53.789 31.3313 53.6296 31.3697 53.5105 31.4466C53.3914 31.5234 53.3318 31.6272 53.3318 31.7578C53.3318 31.8577 53.3645 31.9499 53.4298 32.0344C53.4951 32.1151 53.6315 32.1843 53.839 32.2419L54.6112 32.4551C55.0185 32.5666 55.3105 32.7202 55.4872 32.9162C55.6678 33.1083 55.7581 33.3523 55.7581 33.6481C55.7581 34.063 55.614 34.3819 55.3259 34.6048C55.0377 34.8276 54.6362 34.939 54.1214 34.939Z" fill="#BFDCFF"/>
<path d="M49.2461 34.8873V30.7378H50.1106V34.8873H49.2461Z" fill="#BFDCFF"/>
<path d="M47.5157 34.8872C47.4927 34.8027 47.4754 34.7124 47.4639 34.6164C47.4562 34.5203 47.4523 34.4089 47.4523 34.2821H47.4293V32.8932C47.4293 32.7741 47.3889 32.6819 47.3083 32.6165C47.2314 32.5474 47.1162 32.5128 46.9625 32.5128C46.8165 32.5128 46.6993 32.5378 46.6109 32.5877C46.5264 32.6377 46.4707 32.7107 46.4438 32.8067H45.6197C45.6581 32.5416 45.7945 32.3226 46.0288 32.1497C46.2632 31.9768 46.584 31.8904 46.9913 31.8904C47.4139 31.8904 47.7366 31.9845 47.9595 32.1728C48.1823 32.361 48.2938 32.6319 48.2938 32.9854V34.2821C48.2938 34.3781 48.2995 34.4761 48.311 34.576C48.3264 34.6721 48.3495 34.7758 48.3802 34.8872H47.5157ZM46.4899 34.9449C46.1979 34.9449 45.9654 34.8719 45.7925 34.7259C45.6197 34.576 45.5332 34.3781 45.5332 34.1322C45.5332 33.8595 45.635 33.6405 45.8386 33.4752C46.0461 33.3062 46.3343 33.1967 46.7031 33.1467L47.5618 33.0257V33.5271L46.8472 33.6366C46.6935 33.6597 46.5802 33.7019 46.5072 33.7634C46.4342 33.8249 46.3977 33.9094 46.3977 34.017C46.3977 34.113 46.4323 34.186 46.5014 34.236C46.5706 34.2859 46.6628 34.3109 46.778 34.3109C46.9586 34.3109 47.1123 34.2629 47.2391 34.1668C47.3659 34.0669 47.4293 33.9517 47.4293 33.821L47.51 34.2821C47.4254 34.5011 47.2967 34.6663 47.1238 34.7777C46.9509 34.8891 46.7396 34.9449 46.4899 34.9449Z" fill="#BFDCFF"/>
<path d="M41.8828 34.8872V31.948H42.73V32.6396H42.7473V34.8872H41.8828ZM43.9287 34.8872V33.0661C43.9287 32.9047 43.8865 32.7837 43.8019 32.703C43.7213 32.6223 43.6022 32.582 43.4446 32.582C43.3102 32.582 43.1891 32.6127 43.0815 32.6742C42.9778 32.7356 42.8952 32.8202 42.8337 32.9277C42.7761 33.0353 42.7473 33.1621 42.7473 33.3081L42.6724 32.5992C42.7684 32.3841 42.9087 32.2131 43.0931 32.0863C43.2813 31.9557 43.5119 31.8904 43.7847 31.8904C44.1112 31.8904 44.361 31.9826 44.5339 32.167C44.7068 32.3476 44.7932 32.5916 44.7932 32.8989V34.8872H43.9287Z" fill="#BFDCFF"/>
<path d="M39.51 34.9449C39.1872 34.9449 38.9029 34.8815 38.657 34.7547C38.415 34.624 38.2248 34.4435 38.0865 34.2129C37.952 33.9786 37.8848 33.7096 37.8848 33.4061C37.8848 33.1026 37.952 32.8375 38.0865 32.6108C38.2248 32.3841 38.415 32.2074 38.657 32.0806C38.9029 31.9538 39.1872 31.8904 39.51 31.8904C39.8366 31.8904 40.1209 31.9538 40.3629 32.0806C40.6088 32.2074 40.799 32.3841 40.9335 32.6108C41.0679 32.8375 41.1352 33.1026 41.1352 33.4061C41.1352 33.7096 41.066 33.9786 40.9277 34.2129C40.7932 34.4435 40.603 34.624 40.3572 34.7547C40.1151 34.8815 39.8327 34.9449 39.51 34.9449ZM39.51 34.2648C39.6444 34.2648 39.7655 34.2302 39.8731 34.1611C39.9845 34.0919 40.0728 33.9939 40.1382 33.8671C40.2035 33.7365 40.2361 33.5809 40.2361 33.4003C40.2361 33.1352 40.1651 32.9316 40.0229 32.7894C39.8846 32.6434 39.7136 32.5704 39.51 32.5704C39.3063 32.5704 39.1334 32.6434 38.9913 32.7894C38.853 32.9354 38.7838 33.1391 38.7838 33.4003C38.7838 33.5809 38.8165 33.7365 38.8818 33.8671C38.9471 33.9939 39.0336 34.0919 39.1411 34.1611C39.2526 34.2302 39.3755 34.2648 39.51 34.2648Z" fill="#BFDCFF"/>
<path d="M36.2847 34.8873V31.9481H37.1492V34.8873H36.2847ZM36.2559 31.5562V30.6226H37.178V31.5562H36.2559Z" fill="#BFDCFF"/>
<path d="M34.9938 34.9506C34.6172 34.9506 34.3368 34.8603 34.1524 34.6797C33.9718 34.4953 33.8815 34.2168 33.8815 33.8441V31.291L34.746 30.9683V33.8729C34.746 34.0035 34.7825 34.1015 34.8555 34.1668C34.9285 34.2321 35.0418 34.2648 35.1955 34.2648C35.2531 34.2648 35.3069 34.259 35.3569 34.2475C35.4068 34.236 35.4567 34.2225 35.5067 34.2072V34.8642C35.4567 34.891 35.3857 34.9122 35.2935 34.9275C35.2051 34.9429 35.1052 34.9506 34.9938 34.9506ZM33.334 32.605V31.948H35.5067V32.605H33.334Z" fill="#BFDCFF"/>
<path d="M32.0724 34.8872C32.0493 34.8027 32.032 34.7124 32.0205 34.6164C32.0128 34.5203 32.009 34.4089 32.009 34.2821H31.9859V32.8932C31.9859 32.7741 31.9456 32.6819 31.8649 32.6165C31.7881 32.5474 31.6728 32.5128 31.5191 32.5128C31.3731 32.5128 31.2559 32.5378 31.1676 32.5877C31.083 32.6377 31.0273 32.7107 31.0004 32.8067H30.1763C30.2147 32.5416 30.3511 32.3226 30.5855 32.1497C30.8198 31.9768 31.1407 31.8904 31.5479 31.8904C31.9706 31.8904 32.2933 31.9845 32.5161 32.1728C32.739 32.361 32.8504 32.6319 32.8504 32.9854V34.2821C32.8504 34.3781 32.8562 34.4761 32.8677 34.576C32.8831 34.6721 32.9061 34.7758 32.9368 34.8872H32.0724ZM31.0465 34.9449C30.7545 34.9449 30.5221 34.8719 30.3492 34.7259C30.1763 34.576 30.0898 34.3781 30.0898 34.1322C30.0898 33.8595 30.1917 33.6405 30.3953 33.4752C30.6028 33.3062 30.8909 33.1967 31.2598 33.1467L32.1185 33.0257V33.5271L31.4038 33.6366C31.2502 33.6597 31.1368 33.7019 31.0638 33.7634C30.9908 33.8249 30.9543 33.9094 30.9543 34.017C30.9543 34.113 30.9889 34.186 31.0581 34.236C31.1272 34.2859 31.2194 34.3109 31.3347 34.3109C31.5153 34.3109 31.6689 34.2629 31.7957 34.1668C31.9225 34.0669 31.9859 33.9517 31.9859 33.821L32.0666 34.2821C31.9821 34.5011 31.8534 34.6663 31.6805 34.7777C31.5076 34.8891 31.2963 34.9449 31.0465 34.9449Z" fill="#BFDCFF"/>
<path d="M27.7441 34.8872V31.948H28.5913V32.6396H28.6086V34.8872H27.7441ZM28.6086 33.3542L28.5337 32.6569C28.6028 32.4071 28.7162 32.217 28.8737 32.0863C29.0312 31.9557 29.2272 31.8904 29.4616 31.8904C29.5346 31.8904 29.5883 31.8981 29.6229 31.9134V32.7203C29.6037 32.7126 29.5768 32.7087 29.5422 32.7087C29.5077 32.7049 29.4654 32.703 29.4155 32.703C29.1388 32.703 28.9352 32.7529 28.8046 32.8528C28.6739 32.9489 28.6086 33.116 28.6086 33.3542Z" fill="#BFDCFF"/>
<path d="M25.5297 34.9449C25.2031 34.9449 24.9188 34.8815 24.6768 34.7547C24.4347 34.624 24.2464 34.4435 24.112 34.2129C23.9813 33.9824 23.916 33.7173 23.916 33.4176C23.916 33.1141 23.9813 32.849 24.112 32.6223C24.2464 32.3918 24.4328 32.2131 24.671 32.0863C24.9092 31.9557 25.1858 31.8904 25.5009 31.8904C25.8044 31.8904 26.0676 31.9519 26.2904 32.0748C26.5133 32.1977 26.6862 32.3687 26.8091 32.5877C26.9321 32.8067 26.9935 33.0641 26.9935 33.36C26.9935 33.4215 26.9916 33.4791 26.9878 33.5329C26.9839 33.5828 26.9782 33.6309 26.9705 33.677H24.4232V33.1064H26.2731L26.1233 33.2101C26.1233 32.9719 26.0657 32.7971 25.9504 32.6857C25.839 32.5704 25.6853 32.5128 25.4894 32.5128C25.2627 32.5128 25.0859 32.5896 24.9591 32.7433C24.8362 32.897 24.7747 33.1275 24.7747 33.4349C24.7747 33.7346 24.8362 33.9574 24.9591 34.1034C25.0859 34.2494 25.2742 34.3224 25.5239 34.3224C25.6623 34.3224 25.7814 34.2994 25.8812 34.2533C25.9811 34.2072 26.0561 34.1322 26.106 34.0285H26.9186C26.8226 34.3128 26.6574 34.5376 26.423 34.7028C26.1925 34.8642 25.8947 34.9449 25.5297 34.9449Z" fill="#BFDCFF"/>
<path d="M21.9759 34.9449C21.6955 34.9449 21.4707 34.8795 21.3016 34.7489C21.1326 34.6183 21.0327 34.4396 21.002 34.2129L21.0481 34.2072V36.0687H20.1836V31.948H21.0308V32.5992L20.9789 32.5877C21.0212 32.3726 21.1364 32.2035 21.3247 32.0806C21.513 31.9538 21.7454 31.8904 22.022 31.8904C22.2871 31.8904 22.5157 31.9538 22.7079 32.0806C22.9038 32.2035 23.0536 32.3783 23.1574 32.605C23.265 32.8317 23.3187 33.0987 23.3187 33.4061C23.3187 33.7173 23.263 33.9882 23.1516 34.2187C23.0402 34.4492 22.8846 34.6279 22.6848 34.7547C22.485 34.8815 22.2487 34.9449 21.9759 34.9449ZM21.7339 34.2533C21.9375 34.2533 22.1027 34.1803 22.2295 34.0343C22.3563 33.8883 22.4197 33.6808 22.4197 33.4119C22.4197 33.1429 22.3544 32.9374 22.2237 32.7952C22.097 32.653 21.9298 32.582 21.7224 32.582C21.5226 32.582 21.3574 32.655 21.2267 32.801C21.0999 32.9431 21.0365 33.1487 21.0365 33.4176C21.0365 33.6866 21.0999 33.894 21.2267 34.04C21.3574 34.1822 21.5264 34.2533 21.7339 34.2533Z" fill="#BFDCFF"/>
<path d="M17.2516 34.9449C16.9442 34.9449 16.6599 34.893 16.3987 34.7893C16.1412 34.6856 15.9165 34.5396 15.7244 34.3513C15.5361 34.1592 15.3882 33.9325 15.2806 33.6713C15.1769 33.4061 15.125 33.1141 15.125 32.7953C15.125 32.3726 15.2153 32.0038 15.3959 31.6887C15.5764 31.3698 15.8262 31.122 16.1451 30.9453C16.4678 30.7685 16.8347 30.6802 17.2458 30.6802C17.6646 30.6802 18.0335 30.7685 18.3524 30.9453C18.6713 31.122 18.921 31.3698 19.1016 31.6887C19.286 32.0076 19.3782 32.3784 19.3782 32.801C19.3782 33.1161 19.3244 33.4061 19.2168 33.6713C19.1131 33.9325 18.9652 34.1592 18.7731 34.3513C18.5848 34.5396 18.36 34.6856 18.0988 34.7893C17.8414 34.893 17.559 34.9449 17.2516 34.9449ZM17.2458 34.2418C17.4879 34.2418 17.7011 34.1803 17.8855 34.0574C18.07 33.9344 18.214 33.7654 18.3178 33.5502C18.4254 33.3312 18.4792 33.0776 18.4792 32.7895C18.4792 32.5052 18.4273 32.2574 18.3235 32.046C18.2198 31.8347 18.0757 31.6714 17.8913 31.5562C17.7069 31.4409 17.4917 31.3833 17.2458 31.3833C17.0038 31.3833 16.7905 31.4409 16.6061 31.5562C16.4217 31.6714 16.2776 31.8347 16.1739 32.046C16.074 32.2535 16.0241 32.5013 16.0241 32.7895C16.0241 33.0815 16.0759 33.337 16.1797 33.556C16.2834 33.7711 16.4275 33.9402 16.6119 34.0631C16.7963 34.1822 17.0076 34.2418 17.2458 34.2418Z" fill="#BFDCFF"/>
<path d="M9.17188 34.8873L10.6588 30.7378H11.4195L10.0536 34.8873H9.17188ZM12.2148 34.8873L10.8547 30.7378H11.65L13.1369 34.8873H12.2148ZM9.95566 33.2793H12.284V33.9709H9.95566V33.2793Z" fill="#BFDCFF"/>
<path d="M7.03012 34.8873V31.4178H5.67578V30.7378H9.27199V31.4178H7.91765V34.8873H7.03012Z" fill="#BFDCFF"/>
<path d="M1.80859 34.8873L3.29549 30.7378H4.05622L2.69036 34.8873H1.80859ZM4.85154 34.8873L3.49143 30.7378H4.28675L5.77364 34.8873H4.85154ZM2.59238 33.2793H4.92069V33.9709H2.59238V33.2793Z" fill="#BFDCFF"/>
<path d="M0.207031 34.8873V30.7378H1.09456V34.8873H0.207031Z" fill="#BFDCFF"/>
</svg>
