<svg width="215" height="57" viewBox="0 0 215 57" fill="none" xmlns="http://www.w3.org/2000/svg">
<g clip-path="url(#clip0_15_8533)">
<path d="M91.6883 38.352H88.9763C88.8324 38.352 88.6916 38.2571 88.6427 38.1377L86.6684 33.6412H79.2425L77.2682 38.1377C77.2192 38.2571 77.0784 38.352 76.9346 38.352H76.5305C76.1724 38.352 76.0561 38.1377 76.1724 37.8285L83.6686 20.7423C83.7176 20.623 83.8584 20.5281 84.0023 20.5281H84.1921C84.3359 20.5281 84.4767 20.623 84.5257 20.7423L92.022 37.8285C92.1658 38.1377 92.0464 38.352 91.6883 38.352ZM82.9554 25.147L79.7414 32.4994H86.1664L82.9524 25.147H82.9554Z" fill="black"/>
<path d="M98.6606 38.3521H96.1843C95.97 38.3521 95.8262 38.2082 95.8262 37.994V20.8833C95.8262 20.669 95.97 20.5251 96.1843 20.5251H98.6606C98.8749 20.5251 99.0187 20.669 99.0187 20.8833V37.994C99.0187 38.2082 98.8749 38.3521 98.6606 38.3521Z" fill="black"/>
<path d="M118.768 38.352H115.27C115.199 38.352 115.08 38.303 115.031 38.2571L107.819 31.2383H106.962V37.9969C106.962 38.2112 106.818 38.355 106.604 38.355H104.128C103.913 38.355 103.77 38.2112 103.77 37.9969V20.8862C103.77 20.6719 103.913 20.5281 104.128 20.5281H111.03C114.838 20.5281 117.764 21.8382 117.764 25.9306C117.764 30.0231 115.098 30.9996 111.838 31.1894L119.001 37.7092C119.429 38.0887 119.334 38.352 118.762 38.352H118.768ZM114.581 25.9306C114.581 23.788 113.271 21.6698 110.513 21.6698L106.968 21.6943V30.0935H110.204C112.75 30.069 114.581 28.7834 114.581 25.9276V25.9306Z" fill="black"/>
<path d="M133.142 38.3521H130.669C130.454 38.3521 130.311 38.2082 130.311 37.994V20.8833C130.311 20.669 130.454 20.5251 130.669 20.5251H137.571C141.379 20.5251 144.305 21.8352 144.305 25.9277C144.305 30.7824 140.568 31.2109 136.739 31.2354H133.503V37.994C133.503 38.2082 133.359 38.3521 133.145 38.3521H133.142ZM141.116 25.9308C141.116 23.7881 139.83 21.6699 137.069 21.6699L133.5 21.6944V30.0937H136.735C139.282 30.0692 141.113 28.7836 141.113 25.9277L141.116 25.9308Z" fill="black"/>
<path d="M159.558 38.3521H149.8C148.395 38.3521 146.73 37.2563 146.684 35.3524V23.6688C146.684 21.5996 148.373 20.5527 149.778 20.5527H159.558C159.772 20.5527 159.916 20.6966 159.916 20.9109V21.3394C159.916 21.5537 159.772 21.6975 159.558 21.6975H151.872C151.205 21.6975 149.898 22.1261 149.898 23.6718V28.0735H159.035C159.249 28.0735 159.393 28.2173 159.393 28.4316V28.8601C159.393 29.0744 159.249 29.2183 159.035 29.2183H149.898V35.2147C149.898 36.9533 151.348 37.189 152.111 37.189H159.558C159.772 37.189 159.916 37.3328 159.916 37.5471V38.0001C159.916 38.2144 159.772 38.3583 159.558 38.3583V38.3521Z" fill="black"/>
<path d="M178.026 38.352H175.314C175.17 38.352 175.03 38.2571 174.981 38.1377L173.006 33.6412H165.58L163.606 38.1377C163.557 38.2571 163.416 38.352 163.272 38.352H162.868C162.51 38.352 162.394 38.1377 162.51 37.8285L170.007 20.7423C170.056 20.623 170.196 20.5281 170.34 20.5281H170.53C170.674 20.5281 170.815 20.623 170.864 20.7423L178.36 37.8285C178.504 38.1377 178.384 38.352 178.026 38.352ZM169.293 25.147L166.079 32.4994H172.504L169.29 25.147H169.293Z" fill="black"/>
<path d="M190.187 38.6398C184.738 38.6398 180.977 34.5228 180.977 29.3345C180.977 24.1462 184.689 20.0996 190.162 20.0996C192.734 20.0996 194.898 21.2169 195.969 23.0504C196.113 23.335 195.994 23.5493 195.635 23.5493H195.161C195.017 23.5493 194.898 23.4789 194.827 23.384C193.9 21.9576 192.449 21.1709 190.162 21.1709C186.189 21.1709 184.285 25.1226 184.285 29.1416C184.285 33.1607 186.309 37.495 190.187 37.495C192.21 37.495 193.924 36.6624 194.683 35.5207C194.754 35.4258 194.898 35.3554 195.017 35.3554H195.779C196.113 35.3554 196.254 35.5696 196.088 35.8543C195.136 37.2807 192.899 38.6398 190.306 38.6398H190.187Z" fill="black"/>
<path d="M212.794 38.3521H203.036C201.631 38.3521 199.966 37.2563 199.92 35.3524V23.6688C199.92 21.5996 201.61 20.5527 203.015 20.5527H212.794C213.009 20.5527 213.152 20.6966 213.152 20.9109V21.3394C213.152 21.5537 213.009 21.6975 212.794 21.6975H205.108C204.441 21.6975 203.134 22.1261 203.134 23.6718V28.0735H212.271C212.485 28.0735 212.629 28.2173 212.629 28.4316V28.8601C212.629 29.0744 212.485 29.2183 212.271 29.2183H203.134V35.2147C203.134 36.9533 204.585 37.189 205.347 37.189H212.794C213.009 37.189 213.152 37.3328 213.152 37.5471V38.0001C213.152 38.2144 213.009 38.3583 212.794 38.3583V38.3521Z" fill="black"/>
<path d="M132.225 48.5112V47.4644H133.265V48.5112H132.225Z" fill="black"/>
<path d="M134.135 48.5112V47.4644H135.175V48.5112H134.135Z" fill="black"/>
<path d="M136.045 48.5112V47.4644H137.086V48.5112H136.045Z" fill="black"/>
<path d="M138.87 48.5114L137.027 44.1985H137.982L139.547 48.0798L138.87 48.5114ZM137.872 50.2469L138.913 47.8716L139.09 47.5931L140.401 44.2015H141.313L138.775 50.2469H137.869H137.872Z" fill="black"/>
<path d="M143.789 48.5971C143.348 48.5971 142.963 48.4991 142.632 48.3063C142.299 48.1134 142.041 47.8441 141.855 47.5043C141.668 47.1645 141.576 46.7758 141.576 46.3411C141.576 45.9065 141.671 45.5147 141.861 45.1841C142.051 44.8505 142.308 44.5903 142.638 44.4036C142.969 44.2138 143.352 44.1189 143.792 44.1189C144.233 44.1189 144.625 44.2138 144.959 44.4036C145.292 44.5933 145.549 44.8535 145.733 45.1841C145.917 45.5177 146.008 45.9034 146.008 46.3411C146.008 46.7789 145.917 47.1615 145.733 47.5043C145.549 47.8441 145.292 48.1134 144.959 48.3063C144.625 48.5022 144.236 48.5971 143.792 48.5971H143.789ZM143.789 47.8777C144.056 47.8777 144.285 47.8135 144.478 47.6818C144.674 47.5533 144.827 47.3727 144.937 47.14C145.05 46.9105 145.105 46.6381 145.105 46.3289C145.105 45.8667 144.983 45.5024 144.738 45.2331C144.493 44.9637 144.175 44.8321 143.786 44.8321C143.397 44.8321 143.088 44.9668 142.843 45.2392C142.599 45.5086 142.476 45.8728 142.476 46.3289C142.476 46.6381 142.531 46.9105 142.641 47.14C142.752 47.3727 142.908 47.5502 143.107 47.6818C143.306 47.8104 143.535 47.8777 143.786 47.8777H143.789Z" fill="black"/>
<path d="M148.313 48.5969C148.026 48.5969 147.772 48.5357 147.551 48.4163C147.331 48.2939 147.159 48.1286 147.04 47.9143C146.918 47.7001 146.859 47.4552 146.859 47.1797V44.2045H147.738V46.9777C147.738 47.2777 147.811 47.4981 147.958 47.645C148.105 47.7919 148.313 47.8654 148.583 47.8654C148.825 47.8654 149.042 47.8103 149.229 47.697C149.415 47.5838 149.568 47.4277 149.675 47.2287C149.786 47.0297 149.841 46.7971 149.841 46.5308L149.951 47.5623C149.81 47.8776 149.593 48.1317 149.305 48.3184C149.014 48.5082 148.684 48.6031 148.31 48.6031L148.313 48.5969ZM149.877 48.5112V47.4981H149.844V44.2014H150.713V48.5143H149.877V48.5112Z" fill="black"/>
<path d="M151.945 48.5114V44.1985H152.781V45.2729H152.824V48.5114H151.945ZM152.827 46.2646L152.717 45.2423C152.818 44.8749 152.992 44.5964 153.24 44.4066C153.488 44.2168 153.785 44.1189 154.128 44.1189C154.256 44.1189 154.348 44.1311 154.397 44.1526V44.9821C154.37 44.9698 154.33 44.9637 154.278 44.9607C154.226 44.9607 154.165 44.9576 154.091 44.9576C153.669 44.9576 153.35 45.0678 153.139 45.2882C152.928 45.5086 152.821 45.8361 152.821 46.2677L152.827 46.2646Z" fill="black"/>
<path d="M159.152 48.5878C158.745 48.5878 158.408 48.4898 158.142 48.297C157.876 48.1011 157.698 47.8317 157.613 47.4797L157.732 47.4613V50.2437H156.854V44.1984H157.689V45.1871L157.603 45.1626C157.692 44.835 157.885 44.5779 158.179 44.3943C158.473 44.2076 158.816 44.1157 159.21 44.1157C159.605 44.1157 159.936 44.2076 160.221 44.3943C160.505 44.581 160.726 44.8412 160.879 45.1718C161.035 45.5054 161.111 45.8941 161.111 46.338C161.111 46.7818 161.029 47.1828 160.866 47.5226C160.701 47.8593 160.475 48.1225 160.181 48.3092C159.887 48.4959 159.544 48.5878 159.149 48.5878H159.152ZM158.966 47.8623C159.348 47.8623 159.654 47.7276 159.878 47.4552C160.101 47.1828 160.218 46.8124 160.218 46.338C160.218 45.8635 160.104 45.5054 159.878 45.2422C159.651 44.9789 159.345 44.8504 158.956 44.8504C158.568 44.8504 158.268 44.985 158.038 45.2513C157.809 45.5207 157.695 45.888 157.695 46.3625C157.695 46.8369 157.809 47.1889 158.038 47.4583C158.268 47.7276 158.574 47.8593 158.963 47.8593L158.966 47.8623Z" fill="black"/>
<path d="M163.918 48.5971C163.484 48.5971 163.101 48.5022 162.774 48.3094C162.446 48.1165 162.186 47.8533 161.999 47.5135C161.813 47.1737 161.721 46.785 161.721 46.3473C161.721 45.9096 161.813 45.5116 161.996 45.1749C162.18 44.8382 162.437 44.5781 162.771 44.3913C163.104 44.2046 163.484 44.1128 163.912 44.1128C164.341 44.1128 164.69 44.2016 164.999 44.3791C165.305 44.5566 165.544 44.8046 165.709 45.1198C165.874 45.4351 165.957 45.8116 165.957 46.2432C165.957 46.3106 165.957 46.3748 165.954 46.433C165.954 46.4911 165.945 46.5524 165.933 46.6136H162.315V45.9555H165.317L165.097 46.2187C165.097 45.7565 164.993 45.4045 164.785 45.1627C164.577 44.9209 164.286 44.7984 163.915 44.7984C163.514 44.7984 163.199 44.9362 162.963 45.2086C162.731 45.481 162.611 45.8606 162.611 46.3442C162.611 46.8278 162.728 47.2166 162.963 47.4951C163.196 47.7706 163.524 47.9084 163.94 47.9084C164.194 47.9084 164.414 47.8563 164.598 47.7523C164.785 47.6482 164.922 47.4951 165.011 47.2901H165.841C165.7 47.6972 165.461 48.0155 165.128 48.2451C164.791 48.4777 164.39 48.591 163.922 48.591L163.918 48.5971Z" fill="black"/>
<path d="M167.986 48.597C167.546 48.597 167.197 48.4898 166.94 48.2725C166.682 48.0552 166.551 47.7613 166.551 47.3879C166.551 47.0145 166.689 46.7022 166.961 46.4788C167.233 46.2553 167.628 46.1054 168.139 46.0258L169.56 45.7962V46.4145L168.274 46.6165C167.986 46.6624 167.772 46.739 167.628 46.8461C167.484 46.9532 167.414 47.1093 167.414 47.3114C167.414 47.5134 167.481 47.6573 167.613 47.7552C167.745 47.8532 167.937 47.9021 168.191 47.9021C168.528 47.9021 168.81 47.8195 169.033 47.6573C169.257 47.495 169.367 47.2869 169.367 47.0389L169.477 47.6634C169.376 47.9633 169.195 48.1929 168.935 48.3521C168.675 48.5113 168.36 48.5939 167.989 48.5939L167.986 48.597ZM169.474 48.5113C169.446 48.4041 169.428 48.2847 169.419 48.1562C169.41 48.0276 169.407 47.8685 169.407 47.6817H169.364V45.6278C169.364 45.3524 169.293 45.1442 169.156 45.0065C169.018 44.8687 168.798 44.7983 168.501 44.7983C168.204 44.7983 167.983 44.8534 167.812 44.9667C167.64 45.0799 167.539 45.2391 167.512 45.4473H166.676C166.716 45.0401 166.9 44.7187 167.224 44.4739C167.552 44.2321 167.989 44.1096 168.534 44.1096C169.079 44.1096 169.52 44.2412 169.802 44.5014C170.083 44.7647 170.224 45.1473 170.224 45.6554V47.6756C170.224 47.8042 170.233 47.9389 170.248 48.0735C170.267 48.2082 170.291 48.3521 170.325 48.5051H169.471L169.474 48.5113Z" fill="black"/>
<path d="M173.177 48.5971C172.767 48.5971 172.4 48.4991 172.078 48.3063C171.757 48.1134 171.503 47.8471 171.322 47.5074C171.139 47.1707 171.047 46.7819 171.047 46.3503C171.047 45.9187 171.139 45.533 171.322 45.1963C171.506 44.8627 171.757 44.5964 172.078 44.4066C172.4 44.2138 172.764 44.1189 173.168 44.1189C173.511 44.1189 173.82 44.1832 174.089 44.3148C174.359 44.4434 174.582 44.624 174.757 44.8566C174.931 45.0862 175.044 45.3616 175.096 45.6769H174.267C174.212 45.4229 174.089 45.2208 173.9 45.0678C173.71 44.9147 173.474 44.8382 173.186 44.8382C172.939 44.8382 172.721 44.8994 172.534 45.0249C172.348 45.1504 172.204 45.3249 172.103 45.5484C172.002 45.7718 171.95 46.0412 171.95 46.3503C171.95 46.6595 172.002 46.9227 172.103 47.1523C172.204 47.3819 172.348 47.5625 172.534 47.688C172.721 47.8165 172.942 47.8777 173.193 47.8777C173.468 47.8777 173.704 47.8043 173.9 47.6543C174.093 47.5043 174.218 47.3023 174.276 47.0513H175.106C175.051 47.3604 174.931 47.6329 174.754 47.8624C174.576 48.0951 174.353 48.2726 174.08 48.4042C173.811 48.5328 173.508 48.6001 173.174 48.6001L173.177 48.5971Z" fill="black"/>
<path d="M177.817 48.5971C177.382 48.5971 177 48.5022 176.672 48.3094C176.345 48.1165 176.084 47.8533 175.898 47.5135C175.711 47.1737 175.619 46.785 175.619 46.3473C175.619 45.9096 175.711 45.5116 175.895 45.1749C176.078 44.8382 176.335 44.5781 176.669 44.3913C177.003 44.2046 177.382 44.1128 177.811 44.1128C178.239 44.1128 178.591 44.2016 178.897 44.3791C179.203 44.5566 179.442 44.8046 179.608 45.1198C179.773 45.4351 179.859 45.8116 179.859 46.2432C179.859 46.3106 179.859 46.3748 179.855 46.433C179.855 46.4911 179.846 46.5524 179.834 46.6136H176.216V45.9555H179.216L178.995 46.2187C178.995 45.7565 178.891 45.4045 178.683 45.1627C178.475 44.9209 178.184 44.7984 177.811 44.7984C177.41 44.7984 177.095 44.9362 176.859 45.2086C176.626 45.481 176.507 45.8606 176.507 46.3442C176.507 46.8278 176.623 47.2166 176.859 47.4951C177.091 47.7706 177.419 47.9084 177.835 47.9084C178.089 47.9084 178.31 47.8563 178.493 47.7523C178.68 47.6482 178.818 47.4951 178.907 47.2901H179.736C179.595 47.6972 179.357 48.0155 179.023 48.2451C178.686 48.4777 178.285 48.591 177.817 48.591V48.5971Z" fill="black"/>
<path d="M180.394 49.7969V49.3561C180.59 49.2888 180.728 49.1847 180.804 49.047C180.881 48.9092 180.917 48.7103 180.917 48.4501L181.263 48.5082H180.385V47.4675H181.425V48.2542C181.425 48.6429 181.346 48.9705 181.184 49.2337C181.021 49.5 180.758 49.6837 180.394 49.7908V49.7969Z" fill="black"/>
<path d="M186.186 48.5971C185.745 48.5971 185.359 48.4991 185.029 48.3063C184.695 48.1134 184.438 47.8441 184.251 47.5043C184.064 47.1645 183.973 46.7758 183.973 46.3411C183.973 45.9065 184.068 45.5147 184.257 45.1841C184.447 44.8505 184.704 44.5903 185.035 44.4036C185.365 44.2168 185.748 44.1189 186.189 44.1189C186.63 44.1189 187.024 44.2138 187.355 44.4036C187.689 44.5933 187.946 44.8535 188.129 45.1841C188.313 45.5177 188.405 45.9034 188.405 46.3411C188.405 46.7789 188.313 47.1615 188.129 47.5043C187.946 47.8441 187.689 48.1134 187.355 48.3063C187.021 48.5022 186.633 48.5971 186.189 48.5971H186.186ZM186.186 47.8777C186.452 47.8777 186.682 47.8135 186.874 47.6818C187.07 47.5533 187.223 47.3727 187.337 47.14C187.45 46.9105 187.505 46.6381 187.505 46.3289C187.505 45.8667 187.383 45.5024 187.138 45.2331C186.893 44.9637 186.574 44.8321 186.186 44.8321C185.797 44.8321 185.488 44.9668 185.243 45.2392C184.998 45.5116 184.876 45.8728 184.876 46.3289C184.876 46.6381 184.931 46.9105 185.041 47.14C185.151 47.3727 185.307 47.5502 185.506 47.6818C185.705 47.8104 185.932 47.8777 186.186 47.8777Z" fill="black"/>
<path d="M190.71 48.5969C190.422 48.5969 190.168 48.5357 189.948 48.4163C189.727 48.297 189.556 48.1286 189.436 47.9143C189.314 47.7001 189.256 47.4552 189.256 47.1797V44.2045H190.134V46.9777C190.134 47.2777 190.208 47.4981 190.355 47.645C190.502 47.7919 190.71 47.8654 190.979 47.8654C191.221 47.8654 191.438 47.8103 191.625 47.697C191.812 47.5838 191.962 47.4277 192.072 47.2287C192.182 47.0297 192.237 46.7971 192.237 46.5308L192.347 47.5623C192.207 47.8776 191.992 48.1317 191.702 48.3184C191.411 48.5082 191.08 48.6031 190.707 48.6031L190.71 48.5969ZM192.274 48.5112V47.4981H192.24V44.2014H193.11V48.5143H192.274V48.5112Z" fill="black"/>
<path d="M194.344 48.5114V44.1985H195.179V45.2729H195.222V48.5114H194.344ZM195.225 46.2646L195.115 45.2423C195.216 44.8749 195.391 44.5964 195.639 44.4066C195.886 44.2138 196.183 44.1189 196.526 44.1189C196.655 44.1189 196.747 44.1311 196.796 44.1526V44.9821C196.768 44.9698 196.728 44.9637 196.676 44.9607C196.624 44.9607 196.563 44.9576 196.489 44.9576C196.067 44.9576 195.749 45.0678 195.538 45.2882C195.326 45.5086 195.219 45.8361 195.219 46.2677L195.225 46.2646Z" fill="black"/>
<path d="M201.056 50.3296C200.514 50.3296 200.067 50.2072 199.715 49.9623C199.363 49.7174 199.149 49.393 199.078 48.9859H199.908C199.963 49.1726 200.088 49.3195 200.284 49.4267C200.48 49.5338 200.74 49.5889 201.065 49.5889C201.487 49.5889 201.803 49.4848 202.011 49.2767C202.219 49.0685 202.323 48.7594 202.323 48.3461V47.4156L202.399 47.434C202.314 47.7615 202.13 48.0186 201.852 48.2084C201.57 48.3982 201.23 48.49 200.838 48.49C200.447 48.49 200.128 48.4012 199.84 48.2206C199.553 48.04 199.329 47.789 199.173 47.4646C199.017 47.1401 198.938 46.7606 198.938 46.329C198.938 45.8974 199.02 45.5025 199.182 45.1719C199.345 44.8383 199.574 44.5842 199.871 44.4036C200.168 44.223 200.511 44.1343 200.906 44.1343C201.301 44.1343 201.649 44.2322 201.916 44.4251C202.182 44.621 202.354 44.8934 202.427 45.2485L202.36 45.2576V44.2108H203.195V48.3461C203.195 48.9675 203.005 49.4542 202.626 49.8093C202.246 50.1643 201.723 50.3419 201.059 50.3419L201.056 50.3296ZM201.099 47.7768C201.475 47.7768 201.778 47.6452 202.008 47.3789C202.237 47.1126 202.35 46.7514 202.35 46.2892C202.35 45.827 202.237 45.4842 202.008 45.224C201.778 44.9638 201.472 44.8352 201.089 44.8352C200.707 44.8352 200.401 44.9669 200.177 45.227C199.951 45.4903 199.837 45.8515 199.837 46.3137C199.837 46.7759 199.951 47.1218 200.18 47.3819C200.41 47.6452 200.713 47.7737 201.099 47.7737V47.7768Z" fill="black"/>
<path d="M206.309 48.5971C205.868 48.5971 205.482 48.4991 205.152 48.3063C204.818 48.1134 204.561 47.8441 204.374 47.5043C204.188 47.1645 204.096 46.7758 204.096 46.3411C204.096 45.9065 204.191 45.5147 204.38 45.1841C204.57 44.8505 204.827 44.5903 205.158 44.4036C205.488 44.2168 205.871 44.1189 206.312 44.1189C206.753 44.1189 207.147 44.2138 207.478 44.4036C207.812 44.5933 208.069 44.8535 208.252 45.1841C208.436 45.5177 208.528 45.9034 208.528 46.3411C208.528 46.7789 208.436 47.1615 208.252 47.5043C208.069 47.8441 207.812 48.1134 207.478 48.3063C207.144 48.5022 206.756 48.5971 206.312 48.5971H206.309ZM206.309 47.8777C206.575 47.8777 206.805 47.8135 206.997 47.6818C207.193 47.5533 207.346 47.3727 207.46 47.14C207.573 46.9105 207.628 46.6381 207.628 46.3289C207.628 45.8667 207.506 45.5024 207.261 45.2331C207.016 44.9637 206.698 44.8321 206.309 44.8321C205.92 44.8321 205.611 44.9668 205.366 45.2392C205.121 45.5116 204.999 45.8728 204.999 46.3289C204.999 46.6381 205.054 46.9105 205.164 47.14C205.274 47.3727 205.43 47.5502 205.629 47.6818C205.828 47.8104 206.055 47.8777 206.309 47.8777Z" fill="black"/>
<path d="M210.604 48.597C210.163 48.597 209.814 48.4898 209.557 48.2725C209.3 48.0552 209.168 47.7613 209.168 47.3879C209.168 47.0145 209.306 46.7022 209.578 46.4788C209.851 46.2553 210.245 46.1054 210.757 46.0258L212.177 45.7962V46.4145L210.891 46.6165C210.604 46.6624 210.389 46.739 210.245 46.8461C210.102 46.9532 210.031 47.1093 210.031 47.3114C210.031 47.5134 210.099 47.6573 210.23 47.7552C210.362 47.8532 210.555 47.9021 210.809 47.9021C211.145 47.9021 211.427 47.8195 211.65 47.6573C211.874 47.495 211.984 47.2869 211.984 47.0389L212.094 47.6634C211.993 47.9633 211.813 48.1929 211.552 48.3521C211.292 48.5113 210.977 48.5939 210.607 48.5939L210.604 48.597ZM212.091 48.5113C212.064 48.4041 212.045 48.2847 212.036 48.1562C212.027 48.0276 212.024 47.8685 212.024 47.6817H211.981V45.6278C211.981 45.3524 211.911 45.1442 211.773 45.0065C211.635 44.8687 211.418 44.7983 211.118 44.7983C210.818 44.7983 210.6 44.8534 210.429 44.9667C210.258 45.0799 210.157 45.2391 210.129 45.4473H209.293C209.333 45.0401 209.517 44.7187 209.844 44.4739C210.172 44.2321 210.607 44.1096 211.155 44.1096C211.702 44.1096 212.14 44.2412 212.422 44.5014C212.703 44.7647 212.844 45.1473 212.844 45.6554V47.6756C212.844 47.8042 212.853 47.9389 212.869 48.0735C212.884 48.2082 212.912 48.3521 212.945 48.5051H212.091V48.5113Z" fill="black"/>
<path d="M214.035 48.5113V42.4231H214.914V48.5113H214.035Z" fill="black"/>
<path d="M53.7448 37.6175C53.4111 37.5685 53.0775 37.5441 52.7469 37.5441C50.6716 37.5441 48.6881 38.4838 47.3749 40.1336L47.029 40.5652C43.9314 44.4587 39.1073 46.5677 34.1425 46.1943C31.0815 46.6381 29.5113 48.8696 28.7032 50.9908C28.2716 52.1295 28.0573 53.2345 27.9532 54.015C27.9471 54.064 27.941 54.1099 27.9349 54.1589C23.6251 52.4723 19.8325 49.7511 16.8695 46.2984L16.9614 46.2708L29.0582 42.3314C24.225 40.605 19.1285 39.7265 13.9984 39.7265C13.9586 39.7265 13.5852 39.7602 12.9821 39.8183C12.8964 39.8245 12.8046 39.8336 12.7128 39.8428C10.411 40.0663 4.59822 40.403 0.873047 40.7795V40.1673L33.4935 33.7607H33.518C34.1731 33.6567 34.5802 33.6138 34.6812 33.6383L39.9858 34.4678L47.7361 32.9435C49.6798 32.4262 51.7154 33.3659 52.5785 35.1779L53.7448 37.6175Z" fill="#1C4FB5"/>
<path d="M11.8438 37.6602L12.1376 37.5898L11.8438 37.6602Z" fill="#1C4FB5"/>
<path d="M72.6889 8.25684L72.643 8.74965L53.3743 21.8383L48.1034 31.4588L40.7969 32.9311L48.7339 18.2386L58.2841 14.2594L61.6389 12.8605L72.6889 8.25684Z" fill="#1C4FB5"/>
<path d="M66.1232 28.0673C66.1232 43.4608 53.708 55.9495 38.3451 56.0658C38.2716 56.0688 38.1982 56.0688 38.1247 56.0688C38.0023 56.0688 37.8829 56.0688 37.7605 56.0658C35.8596 56.0413 33.9986 55.827 32.2049 55.4413C31.3325 55.2546 30.4754 55.0281 29.6367 54.7588L29.6581 54.5751C30.255 54.7526 30.8642 54.9057 31.4794 55.0373C33.1568 55.3985 34.8924 55.5975 36.6677 55.6219H37.2156C51.5623 55.5117 63.1633 43.8465 63.1633 29.4692C63.1633 27.1062 62.848 24.8196 62.2603 22.6464C61.8777 21.22 61.3757 19.8425 60.7665 18.5233L60.6778 18.3488L63.5734 16.3806C64.2193 17.7825 64.755 19.2487 65.159 20.767C65.7896 23.0933 66.1232 25.542 66.1232 28.0673Z" fill="#FF000D"/>
<path d="M60.9194 11.8198L57.5065 13.2401L57.4208 13.1238C52.7957 7.35084 45.7678 3.58587 37.8522 3.33182C37.6379 3.32569 37.4236 3.31957 37.2094 3.31651H36.6676C22.3821 3.50017 10.8516 15.1379 10.8516 29.4692C10.8516 31.9027 11.1852 34.2596 11.8066 36.4972L11.4607 36.6012C11.3842 36.3962 11.3352 36.2431 11.3168 36.1758C11.3138 36.1696 11.3107 36.1696 11.3107 36.1635C10.5393 33.6015 10.123 30.8834 10.123 28.0673C10.123 12.7259 22.4648 0.267809 37.7603 0.0719086C37.8828 0.0688477 38.0021 0.0688477 38.1246 0.0688477C38.195 0.0688477 38.2684 0.0688477 38.3388 0.0719086C38.5684 0.0749695 38.8011 0.0810914 39.0306 0.0902743C48.0451 0.378003 55.9852 4.92045 60.898 11.78L60.9194 11.8198Z" fill="#FF000D"/>
</g>
<defs>
<clipPath id="clip0_15_8533">
<rect width="214.04" height="56" fill="white" transform="translate(0.873047 0.0688477)"/>
</clipPath>
</defs>
</svg>
