<svg width="154" height="41" viewBox="0 0 154 41" fill="none" xmlns="http://www.w3.org/2000/svg">
<g clip-path="url(#clip0_15_8477)">
<path d="M65.7604 27.414H63.8232C63.7204 27.414 63.6199 27.3462 63.5849 27.2609L62.1747 24.0491H56.8705L55.4603 27.2609C55.4253 27.3462 55.3247 27.414 55.222 27.414H54.9333C54.6775 27.414 54.5945 27.2609 54.6775 27.0401L60.032 14.8357C60.067 14.7504 60.1676 14.6826 60.2703 14.6826H60.4059C60.5086 14.6826 60.6092 14.7504 60.6442 14.8357L65.9987 27.0401C66.1014 27.2609 66.0162 27.414 65.7604 27.414ZM59.5226 17.9819L57.2269 23.2336H61.8161L59.5204 17.9819H59.5226Z" fill="#BFDCFF"/>
<path d="M70.7414 27.414H68.9726C68.8196 27.414 68.7168 27.3112 68.7168 27.1581V14.9362C68.7168 14.7832 68.8196 14.6804 68.9726 14.6804H70.7414C70.8944 14.6804 70.9972 14.7832 70.9972 14.9362V27.1581C70.9972 27.3112 70.8944 27.414 70.7414 27.414Z" fill="#BFDCFF"/>
<path d="M85.1039 27.414H82.6049C82.5546 27.414 82.4693 27.379 82.4344 27.3462L77.2832 22.3328H76.671V27.1603C76.671 27.3134 76.5683 27.4162 76.4152 27.4162H74.6464C74.4934 27.4162 74.3906 27.3134 74.3906 27.1603V14.9384C74.3906 14.7854 74.4934 14.6826 74.6464 14.6826H79.5767C82.2966 14.6826 84.3868 15.6184 84.3868 18.5416C84.3868 21.4648 82.4825 22.1623 80.1539 22.2978L85.2701 26.9548C85.5762 27.2259 85.5084 27.414 85.0996 27.414H85.1039ZM82.113 18.5416C82.113 17.0111 81.1772 15.4981 79.2072 15.4981L76.6754 15.5156V21.5151H78.9864C80.8055 21.4976 82.113 20.5793 82.113 18.5394V18.5416Z" fill="#BFDCFF"/>
<path d="M95.3701 27.414H93.6035C93.4504 27.414 93.3477 27.3112 93.3477 27.1581V14.9362C93.3477 14.7832 93.4504 14.6804 93.6035 14.6804H98.5338C101.254 14.6804 103.344 15.6162 103.344 18.5394C103.344 22.007 100.674 22.3131 97.9391 22.3306H95.6281V27.1581C95.6281 27.3112 95.5253 27.414 95.3723 27.414H95.3701ZM101.066 18.5416C101.066 17.0111 100.147 15.4981 98.1752 15.4981L95.6259 15.5156V21.5151H97.9369C99.756 21.4976 101.063 20.5793 101.063 18.5394L101.066 18.5416Z" fill="#BFDCFF"/>
<path d="M114.239 27.4138H107.269C106.265 27.4138 105.076 26.6311 105.043 25.2711V16.9257C105.043 15.4477 106.25 14.7 107.253 14.7H114.239C114.392 14.7 114.495 14.8027 114.495 14.9558V15.2619C114.495 15.4149 114.392 15.5177 114.239 15.5177H108.749C108.272 15.5177 107.339 15.8238 107.339 16.9279V20.0719H113.865C114.018 20.0719 114.121 20.1747 114.121 20.3277V20.6338C114.121 20.7869 114.018 20.8896 113.865 20.8896H107.339V25.1728C107.339 26.4146 108.375 26.583 108.919 26.583H114.239C114.392 26.583 114.495 26.6857 114.495 26.8388V27.1624C114.495 27.3154 114.392 27.4182 114.239 27.4182V27.4138Z" fill="#BFDCFF"/>
<path d="M127.43 27.414H125.493C125.39 27.414 125.29 27.3462 125.255 27.2609L123.845 24.0491H118.54L117.13 27.2609C117.095 27.3462 116.995 27.414 116.892 27.414H116.603C116.347 27.414 116.264 27.2609 116.347 27.0401L121.702 14.8357C121.737 14.7504 121.837 14.6826 121.94 14.6826H122.076C122.179 14.6826 122.279 14.7504 122.314 14.8357L127.669 27.0401C127.771 27.2609 127.686 27.414 127.43 27.414ZM121.192 17.9819L118.897 23.2336H123.486L121.19 17.9819H121.192Z" fill="#BFDCFF"/>
<path d="M136.116 27.6194C132.224 27.6194 129.537 24.6787 129.537 20.9728C129.537 17.2669 132.189 14.3765 136.098 14.3765C137.935 14.3765 139.481 15.1745 140.246 16.4841C140.349 16.6875 140.264 16.8405 140.008 16.8405H139.669C139.566 16.8405 139.481 16.7902 139.431 16.7225C138.768 15.7036 137.732 15.1417 136.098 15.1417C133.261 15.1417 131.901 17.9643 131.901 20.8351C131.901 23.7058 133.346 26.8017 136.116 26.8017C137.561 26.8017 138.786 26.207 139.328 25.3915C139.378 25.3237 139.481 25.2734 139.566 25.2734H140.11C140.349 25.2734 140.449 25.4265 140.331 25.6298C139.651 26.6487 138.053 27.6194 136.201 27.6194H136.116Z" fill="#BFDCFF"/>
<path d="M152.264 27.4141H145.294C144.291 27.4141 143.101 26.6313 143.068 25.2714V16.9259C143.068 15.4479 144.275 14.7002 145.279 14.7002H152.264C152.417 14.7002 152.52 14.803 152.52 14.956V15.2621C152.52 15.4151 152.417 15.5179 152.264 15.5179H146.774C146.298 15.5179 145.364 15.824 145.364 16.9281V20.0722H151.89C152.043 20.0722 152.146 20.1749 152.146 20.328V20.6341C152.146 20.7871 152.043 20.8899 151.89 20.8899H145.364V25.173C145.364 26.4149 146.4 26.5832 146.945 26.5832H152.264C152.417 26.5832 152.52 26.686 152.52 26.839V27.1626C152.52 27.3157 152.417 27.4184 152.264 27.4184V27.4141Z" fill="#BFDCFF"/>
<path d="M94.7148 34.6706V33.9229H95.4582V34.6706H94.7148Z" fill="#BFDCFF"/>
<path d="M96.0801 34.6706V33.9229H96.8235V34.6706H96.0801Z" fill="#BFDCFF"/>
<path d="M97.4434 34.6706V33.9229H98.1867V34.6706H97.4434Z" fill="#BFDCFF"/>
<path d="M99.4607 34.6705L98.1445 31.5898H98.8267L99.9439 34.3622L99.4607 34.6705ZM98.748 35.9101L99.4913 34.2135L99.6182 34.0145L100.554 31.592H101.205L99.393 35.9101H98.7458H98.748Z" fill="#BFDCFF"/>
<path d="M102.975 34.7316C102.66 34.7316 102.385 34.6617 102.149 34.5239C101.911 34.3862 101.727 34.1938 101.593 33.9511C101.46 33.7084 101.395 33.4307 101.395 33.1203C101.395 32.8098 101.462 32.53 101.598 32.2938C101.733 32.0555 101.917 31.8697 102.153 31.7363C102.389 31.6007 102.663 31.533 102.977 31.533C103.292 31.533 103.572 31.6007 103.81 31.7363C104.049 31.8718 104.232 32.0577 104.364 32.2938C104.495 32.5321 104.56 32.8076 104.56 33.1203C104.56 33.4329 104.495 33.7062 104.364 33.9511C104.232 34.1938 104.049 34.3862 103.81 34.5239C103.572 34.6639 103.295 34.7316 102.977 34.7316H102.975ZM102.975 34.2178C103.166 34.2178 103.329 34.1719 103.467 34.0779C103.607 33.9861 103.716 33.8571 103.795 33.6909C103.876 33.5269 103.915 33.3324 103.915 33.1115C103.915 32.7814 103.828 32.5212 103.653 32.3288C103.478 32.1364 103.251 32.0424 102.973 32.0424C102.695 32.0424 102.475 32.1386 102.3 32.3332C102.125 32.5256 102.037 32.7858 102.037 33.1115C102.037 33.3324 102.077 33.5269 102.155 33.6909C102.234 33.8571 102.346 33.9839 102.488 34.0779C102.63 34.1697 102.794 34.2178 102.973 34.2178H102.975Z" fill="#BFDCFF"/>
<path d="M106.207 34.7317C106.001 34.7317 105.82 34.688 105.662 34.6027C105.505 34.5152 105.382 34.3972 105.297 34.2441C105.21 34.0911 105.168 33.9162 105.168 33.7194V31.5942H105.795V33.5751C105.795 33.7894 105.848 33.9468 105.953 34.0517C106.058 34.1567 106.207 34.2091 106.399 34.2091C106.572 34.2091 106.727 34.1698 106.86 34.0889C106.994 34.008 107.103 33.8965 107.179 33.7544C107.258 33.6123 107.298 33.4461 107.298 33.2559L107.376 33.9927C107.276 34.2179 107.12 34.3994 106.915 34.5327C106.707 34.6683 106.471 34.7361 106.204 34.7361L106.207 34.7317ZM107.324 34.6705V33.9468H107.3V31.592H107.921V34.6727H107.324V34.6705Z" fill="#BFDCFF"/>
<path d="M108.801 34.6704V31.5898H109.398V32.3572H109.428V34.6704H108.801ZM109.43 33.0656L109.352 32.3354C109.424 32.073 109.549 31.874 109.726 31.7385C109.903 31.6029 110.115 31.533 110.36 31.533C110.452 31.533 110.517 31.5417 110.552 31.557V32.1495C110.532 32.1408 110.504 32.1364 110.467 32.1342C110.43 32.1342 110.386 32.132 110.333 32.132C110.032 32.132 109.804 32.2107 109.653 32.3682C109.503 32.5256 109.426 32.7595 109.426 33.0678L109.43 33.0656Z" fill="#BFDCFF"/>
<path d="M113.949 34.7251C113.658 34.7251 113.417 34.6551 113.227 34.5174C113.037 34.3774 112.91 34.185 112.849 33.9336L112.934 33.9205V35.9079H112.307V31.5898H112.904V32.296L112.842 32.2785C112.906 32.0446 113.043 31.8609 113.253 31.7297C113.463 31.5964 113.708 31.5308 113.99 31.5308C114.272 31.5308 114.508 31.5964 114.712 31.7297C114.915 31.8631 115.072 32.0489 115.182 32.2851C115.293 32.5234 115.348 32.8011 115.348 33.1181C115.348 33.4351 115.289 33.7215 115.173 33.9642C115.055 34.2047 114.893 34.3927 114.683 34.5261C114.473 34.6595 114.228 34.7251 113.946 34.7251H113.949ZM113.815 34.2069C114.089 34.2069 114.307 34.1107 114.467 33.9161C114.626 33.7215 114.709 33.457 114.709 33.1181C114.709 32.7792 114.629 32.5234 114.467 32.3354C114.305 32.1473 114.086 32.0555 113.809 32.0555C113.531 32.0555 113.317 32.1517 113.153 32.3419C112.989 32.5343 112.908 32.7967 112.908 33.1356C112.908 33.4745 112.989 33.7259 113.153 33.9183C113.317 34.1107 113.535 34.2047 113.813 34.2047L113.815 34.2069Z" fill="#BFDCFF"/>
<path d="M117.353 34.7316C117.043 34.7316 116.769 34.6638 116.535 34.5261C116.301 34.3884 116.116 34.2003 115.982 33.9576C115.849 33.715 115.783 33.4373 115.783 33.1246C115.783 32.812 115.849 32.5277 115.98 32.2872C116.111 32.0467 116.295 31.8609 116.533 31.7275C116.771 31.5942 117.043 31.5286 117.349 31.5286C117.655 31.5286 117.904 31.592 118.125 31.7188C118.343 31.8456 118.514 32.0227 118.632 32.2479C118.75 32.4731 118.809 32.742 118.809 33.0503C118.809 33.0984 118.809 33.1443 118.807 33.1858C118.807 33.2274 118.8 33.2711 118.792 33.3148H116.207V32.8448H118.352L118.195 33.0328C118.195 32.7027 118.12 32.4512 117.972 32.2785C117.823 32.1058 117.615 32.0183 117.351 32.0183C117.064 32.0183 116.839 32.1167 116.671 32.3113C116.505 32.5059 116.419 32.777 116.419 33.1224C116.419 33.4679 116.503 33.7456 116.671 33.9445C116.837 34.1413 117.071 34.2397 117.368 34.2397C117.55 34.2397 117.707 34.2025 117.838 34.1282C117.972 34.0538 118.07 33.9445 118.134 33.798H118.726C118.626 34.0888 118.455 34.3162 118.217 34.4802C117.976 34.6464 117.69 34.7273 117.355 34.7273L117.353 34.7316Z" fill="#BFDCFF"/>
<path d="M120.258 34.7316C119.943 34.7316 119.694 34.6551 119.51 34.4999C119.326 34.3446 119.232 34.1347 119.232 33.868C119.232 33.6012 119.331 33.3782 119.525 33.2186C119.72 33.059 120.002 32.9519 120.367 32.895L121.382 32.7311V33.1727L120.463 33.317C120.258 33.3498 120.105 33.4045 120.002 33.481C119.899 33.5575 119.849 33.669 119.849 33.8133C119.849 33.9576 119.897 34.0604 119.991 34.1304C120.085 34.2003 120.223 34.2353 120.404 34.2353C120.645 34.2353 120.846 34.1763 121.006 34.0604C121.165 33.9445 121.244 33.7958 121.244 33.6187L121.323 34.0648C121.25 34.279 121.121 34.443 120.936 34.5567C120.75 34.6704 120.525 34.7294 120.26 34.7294L120.258 34.7316ZM121.32 34.6704C121.301 34.5939 121.288 34.5086 121.281 34.4168C121.275 34.3249 121.272 34.2113 121.272 34.0779H121.242V32.6108C121.242 32.414 121.191 32.2654 121.093 32.167C120.995 32.0686 120.837 32.0183 120.625 32.0183C120.413 32.0183 120.256 32.0577 120.133 32.1386C120.011 32.2195 119.939 32.3331 119.919 32.4818H119.322C119.35 32.191 119.482 31.9615 119.713 31.7865C119.947 31.6138 120.26 31.5264 120.649 31.5264C121.038 31.5264 121.353 31.6204 121.554 31.8062C121.756 31.9943 121.856 32.2676 121.856 32.6305V34.0735C121.856 34.1653 121.863 34.2615 121.874 34.3577C121.887 34.4539 121.904 34.5567 121.928 34.666H121.318L121.32 34.6704Z" fill="#BFDCFF"/>
<path d="M123.967 34.7316C123.674 34.7316 123.412 34.6617 123.182 34.5239C122.953 34.3862 122.771 34.196 122.642 33.9533C122.511 33.7128 122.445 33.4351 122.445 33.1268C122.445 32.8186 122.511 32.5431 122.642 32.3026C122.773 32.0642 122.953 31.874 123.182 31.7385C123.412 31.6007 123.672 31.533 123.96 31.533C124.205 31.533 124.426 31.5789 124.619 31.6729C124.811 31.7647 124.971 31.8937 125.095 32.0599C125.22 32.2239 125.301 32.4206 125.338 32.6458H124.745C124.706 32.4644 124.619 32.3201 124.483 32.2107C124.347 32.1014 124.179 32.0468 123.974 32.0468C123.796 32.0468 123.641 32.0905 123.508 32.1801C123.375 32.2698 123.272 32.3944 123.2 32.554C123.127 32.7136 123.09 32.906 123.09 33.1268C123.09 33.3477 123.127 33.5357 123.2 33.6997C123.272 33.8637 123.375 33.9926 123.508 34.0823C123.641 34.1741 123.799 34.2178 123.978 34.2178C124.175 34.2178 124.343 34.1654 124.483 34.0582C124.621 33.9511 124.71 33.8068 124.752 33.6275H125.344C125.305 33.8483 125.22 34.0429 125.093 34.2069C124.966 34.3731 124.807 34.4999 124.612 34.5939C124.42 34.6857 124.203 34.7338 123.965 34.7338L123.967 34.7316Z" fill="#BFDCFF"/>
<path d="M127.281 34.7316C126.97 34.7316 126.697 34.6638 126.463 34.5261C126.229 34.3884 126.043 34.2003 125.91 33.9576C125.777 33.715 125.711 33.4373 125.711 33.1246C125.711 32.812 125.777 32.5277 125.908 32.2872C126.039 32.0467 126.223 31.8609 126.461 31.7275C126.699 31.5942 126.97 31.5286 127.276 31.5286C127.582 31.5286 127.834 31.592 128.053 31.7188C128.271 31.8456 128.442 32.0227 128.56 32.2479C128.678 32.4731 128.739 32.742 128.739 33.0503C128.739 33.0984 128.739 33.1443 128.737 33.1858C128.737 33.2274 128.73 33.2711 128.722 33.3148H126.137V32.8448H128.28L128.123 33.0328C128.123 32.7027 128.048 32.4512 127.9 32.2785C127.751 32.1058 127.543 32.0183 127.276 32.0183C126.99 32.0183 126.765 32.1167 126.596 32.3113C126.43 32.5059 126.345 32.777 126.345 33.1224C126.345 33.4679 126.428 33.7456 126.596 33.9445C126.763 34.1413 126.997 34.2397 127.294 34.2397C127.475 34.2397 127.633 34.2025 127.764 34.1282C127.897 34.0538 127.996 33.9445 128.059 33.798H128.652C128.551 34.0888 128.381 34.3162 128.142 34.4802C127.902 34.6464 127.615 34.7273 127.281 34.7273V34.7316Z" fill="#BFDCFF"/>
<path d="M129.122 35.5886V35.2738C129.262 35.2257 129.36 35.1514 129.415 35.053C129.469 34.9546 129.496 34.8125 129.496 34.6266L129.743 34.6682H129.115V33.9248H129.859V34.4867C129.859 34.7644 129.802 34.9983 129.686 35.1863C129.57 35.3766 129.382 35.5078 129.122 35.5843V35.5886Z" fill="#BFDCFF"/>
<path d="M133.258 34.7316C132.944 34.7316 132.668 34.6617 132.432 34.5239C132.194 34.3862 132.01 34.1938 131.877 33.9511C131.743 33.7084 131.678 33.4307 131.678 33.1203C131.678 32.8098 131.746 32.53 131.881 32.2938C132.017 32.0555 132.2 31.8697 132.436 31.7363C132.673 31.6029 132.946 31.533 133.261 31.533C133.576 31.533 133.858 31.6007 134.094 31.7363C134.332 31.8718 134.516 32.0577 134.647 32.2938C134.778 32.5321 134.844 32.8076 134.844 33.1203C134.844 33.4329 134.778 33.7062 134.647 33.9511C134.516 34.1938 134.332 34.3862 134.094 34.5239C133.855 34.6639 133.578 34.7316 133.261 34.7316H133.258ZM133.258 34.2178C133.449 34.2178 133.613 34.1719 133.75 34.0779C133.89 33.9861 134 33.8571 134.081 33.6909C134.161 33.5269 134.201 33.3324 134.201 33.1115C134.201 32.7814 134.113 32.5212 133.938 32.3288C133.764 32.1364 133.536 32.0424 133.258 32.0424C132.981 32.0424 132.76 32.1386 132.585 32.3332C132.41 32.5278 132.323 32.7858 132.323 33.1115C132.323 33.3324 132.362 33.5269 132.441 33.6909C132.519 33.8571 132.631 33.9839 132.773 34.0779C132.915 34.1697 133.077 34.2178 133.258 34.2178Z" fill="#BFDCFF"/>
<path d="M136.49 34.7317C136.284 34.7317 136.103 34.688 135.945 34.6027C135.788 34.5174 135.665 34.3972 135.58 34.2441C135.493 34.0911 135.451 33.9162 135.451 33.7194V31.5942H136.079V33.5751C136.079 33.7894 136.131 33.9468 136.236 34.0517C136.341 34.1567 136.49 34.2091 136.682 34.2091C136.855 34.2091 137.01 34.1698 137.143 34.0889C137.277 34.008 137.384 33.8965 137.463 33.7544C137.541 33.6123 137.581 33.4461 137.581 33.2559L137.659 33.9927C137.559 34.2179 137.406 34.3994 137.198 34.5327C136.99 34.6683 136.754 34.7361 136.488 34.7361L136.49 34.7317ZM137.607 34.6705V33.9468H137.583V31.592H138.204V34.6727H137.607V34.6705Z" fill="#BFDCFF"/>
<path d="M139.086 34.6704V31.5898H139.683V32.3572H139.713V34.6704H139.086ZM139.716 33.0656L139.637 32.3354C139.709 32.073 139.834 31.874 140.011 31.7385C140.188 31.6007 140.4 31.533 140.645 31.533C140.737 31.533 140.802 31.5417 140.837 31.557V32.1495C140.818 32.1408 140.789 32.1364 140.752 32.1342C140.715 32.1342 140.671 32.132 140.619 32.132C140.317 32.132 140.089 32.2107 139.939 32.3682C139.788 32.5256 139.711 32.7595 139.711 33.0678L139.716 33.0656Z" fill="#BFDCFF"/>
<path d="M143.88 35.9692C143.493 35.9692 143.174 35.8817 142.923 35.7068C142.671 35.5319 142.518 35.3002 142.468 35.0094H143.06C143.1 35.1427 143.189 35.2477 143.329 35.3242C143.469 35.4007 143.655 35.4401 143.887 35.4401C144.188 35.4401 144.414 35.3658 144.562 35.2171C144.711 35.0684 144.785 34.8476 144.785 34.5524V33.8878L144.84 33.9009C144.779 34.1348 144.648 34.3185 144.449 34.454C144.247 34.5896 144.005 34.6552 143.725 34.6552C143.445 34.6552 143.218 34.5918 143.012 34.4628C142.807 34.3338 142.647 34.1545 142.536 33.9227C142.424 33.691 142.367 33.4199 142.367 33.1116C142.367 32.8033 142.426 32.5213 142.542 32.2851C142.658 32.0468 142.822 31.8653 143.034 31.7363C143.246 31.6073 143.491 31.5439 143.773 31.5439C144.055 31.5439 144.304 31.6139 144.495 31.7517C144.685 31.8916 144.807 32.0862 144.86 32.3398L144.812 32.3463V31.5986H145.408V34.5524C145.408 34.9963 145.273 35.3439 145.002 35.5975C144.731 35.8511 144.357 35.9779 143.882 35.9779L143.88 35.9692ZM143.911 34.1457C144.18 34.1457 144.396 34.0517 144.56 33.8615C144.724 33.6713 144.805 33.4133 144.805 33.0832C144.805 32.753 144.724 32.5081 144.56 32.3223C144.396 32.1365 144.178 32.0446 143.904 32.0446C143.631 32.0446 143.412 32.1386 143.253 32.3245C143.091 32.5125 143.01 32.7705 143.01 33.1007C143.01 33.4308 143.091 33.6779 143.255 33.8637C143.419 34.0517 143.635 34.1436 143.911 34.1436V34.1457Z" fill="#BFDCFF"/>
<path d="M147.632 34.7316C147.317 34.7316 147.041 34.6617 146.805 34.5239C146.567 34.3862 146.383 34.1938 146.25 33.9511C146.116 33.7084 146.051 33.4307 146.051 33.1203C146.051 32.8098 146.119 32.53 146.254 32.2938C146.39 32.0555 146.573 31.8697 146.809 31.7363C147.046 31.6029 147.319 31.533 147.634 31.533C147.949 31.533 148.231 31.6007 148.467 31.7363C148.705 31.8718 148.889 32.0577 149.02 32.2938C149.151 32.5321 149.217 32.8076 149.217 33.1203C149.217 33.4329 149.151 33.7062 149.02 33.9511C148.889 34.1938 148.705 34.3862 148.467 34.5239C148.228 34.6639 147.951 34.7316 147.634 34.7316H147.632ZM147.632 34.2178C147.822 34.2178 147.986 34.1719 148.123 34.0779C148.263 33.9861 148.373 33.8571 148.454 33.6909C148.535 33.5269 148.574 33.3324 148.574 33.1115C148.574 32.7814 148.486 32.5212 148.312 32.3288C148.137 32.1364 147.909 32.0424 147.632 32.0424C147.354 32.0424 147.133 32.1386 146.958 32.3332C146.783 32.5278 146.696 32.7858 146.696 33.1115C146.696 33.3324 146.735 33.5269 146.814 33.6909C146.893 33.8571 147.004 33.9839 147.146 34.0779C147.288 34.1697 147.45 34.2178 147.632 34.2178Z" fill="#BFDCFF"/>
<path d="M150.699 34.7316C150.384 34.7316 150.135 34.6551 149.952 34.4999C149.768 34.3446 149.674 34.1347 149.674 33.868C149.674 33.6012 149.772 33.3782 149.967 33.2186C150.161 33.059 150.443 32.9519 150.809 32.895L151.823 32.7311V33.1727L150.905 33.317C150.699 33.3498 150.546 33.4045 150.443 33.481C150.341 33.5575 150.29 33.669 150.29 33.8133C150.29 33.9576 150.338 34.0604 150.433 34.1304C150.527 34.2003 150.664 34.2353 150.846 34.2353C151.086 34.2353 151.287 34.1763 151.447 34.0604C151.607 33.9445 151.685 33.7958 151.685 33.6187L151.764 34.0648C151.692 34.279 151.563 34.443 151.377 34.5567C151.191 34.6704 150.966 34.7294 150.701 34.7294L150.699 34.7316ZM151.762 34.6704C151.742 34.5939 151.729 34.5086 151.722 34.4168C151.716 34.3249 151.714 34.2113 151.714 34.0779H151.683V32.6108C151.683 32.414 151.633 32.2654 151.534 32.167C151.436 32.0686 151.281 32.0183 151.067 32.0183C150.852 32.0183 150.697 32.0577 150.575 32.1386C150.452 32.2195 150.38 32.3331 150.36 32.4818H149.763C149.792 32.191 149.923 31.9615 150.157 31.7865C150.391 31.6138 150.701 31.5264 151.093 31.5264C151.484 31.5264 151.797 31.6204 151.998 31.8062C152.199 31.9943 152.3 32.2676 152.3 32.6305V34.0735C152.3 34.1653 152.306 34.2615 152.317 34.3577C152.328 34.4539 152.348 34.5567 152.372 34.666H151.762V34.6704Z" fill="#BFDCFF"/>
<path d="M153.15 34.6705V30.3218H153.778V34.6705H153.15Z" fill="#BFDCFF"/>
<path d="M38.6581 26.8892C38.4198 26.8542 38.1815 26.8367 37.9453 26.8367C36.463 26.8367 35.0462 27.5079 34.1082 28.6864L33.8611 28.9947C31.6485 31.7758 28.2028 33.2822 24.6565 33.0155C22.4701 33.3325 21.3484 34.9264 20.7712 36.4415C20.463 37.2549 20.3099 38.0441 20.2356 38.6017C20.2312 38.6367 20.2268 38.6695 20.2225 38.7044C17.144 37.4997 14.4351 35.556 12.3187 33.0898L12.3842 33.0701L21.0249 30.2562C17.5725 29.0231 13.9322 28.3956 10.2678 28.3956C10.2394 28.3956 9.97266 28.4197 9.54194 28.4612C9.48072 28.4656 9.41513 28.4721 9.34953 28.4787C7.70537 28.6383 3.55341 28.8788 0.892578 29.1477V28.7104L24.1929 24.1343H24.2104C24.6783 24.06 24.9691 24.0294 25.0413 24.0469L28.8303 24.6394L34.3662 23.5506C35.7546 23.1811 37.2085 23.8523 37.8251 25.1466L38.6581 26.8892Z" fill="#BFDCFF"/>
<path d="M8.72852 26.9199L8.93841 26.8696L8.72852 26.9199Z" fill="#BFDCFF"/>
<path d="M52.1902 5.91748L52.1574 6.26949L38.394 15.6185L34.6291 22.4903L29.4102 23.542L35.0795 13.0473L41.901 10.205L44.2973 9.20581L52.1902 5.91748Z" fill="#BFDCFF"/>
<path d="M47.4993 20.0679C47.4993 31.0632 38.6313 39.9837 27.6578 40.0668C27.6053 40.0689 27.5528 40.0689 27.5004 40.0689C27.4129 40.0689 27.3276 40.0689 27.2402 40.0668C25.8824 40.0493 24.5531 39.8962 23.2719 39.6207C22.6488 39.4874 22.0366 39.3256 21.4375 39.1332L21.4528 39.002C21.8792 39.1288 22.3142 39.2381 22.7537 39.3321C23.9518 39.5901 25.1915 39.7322 26.4596 39.7497H26.851C37.0986 39.671 45.385 31.3387 45.385 21.0692C45.385 19.3813 45.1598 17.7481 44.74 16.1958C44.4667 15.1769 44.1082 14.193 43.6731 13.2507L43.6097 13.1261L45.678 11.7202C46.1393 12.7216 46.522 13.7689 46.8106 14.8533C47.261 16.515 47.4993 18.2641 47.4993 20.0679Z" fill="#BFDCFF"/>
<path d="M43.7831 8.4624L41.3453 9.47688L41.2841 9.3938C37.9805 5.27027 32.9605 2.58101 27.3065 2.39954C27.1535 2.39517 27.0004 2.39079 26.8474 2.38861H26.4604C16.2565 2.51979 8.02036 10.8324 8.02036 21.0691C8.02036 22.8073 8.25868 24.4908 8.70251 26.0891L8.45545 26.1634C8.40079 26.0169 8.36581 25.9076 8.35269 25.8595C8.35051 25.8551 8.34832 25.8551 8.34832 25.8508C7.79735 24.0207 7.5 22.0792 7.5 20.0678C7.5 9.10957 16.3155 0.210963 27.2409 0.071034C27.3284 0.0688477 27.4136 0.0688477 27.5011 0.0688477C27.5514 0.0688477 27.6039 0.0688477 27.6541 0.071034C27.8181 0.0732204 27.9843 0.0775932 28.1483 0.0841524C34.5872 0.289673 40.2587 3.53428 43.7678 8.43398L43.7831 8.4624Z" fill="#BFDCFF"/>
</g>
<defs>
<clipPath id="clip0_15_8477">
<rect width="152.885" height="40" fill="white" transform="translate(0.892578 0.0688477)"/>
</clipPath>
</defs>
</svg>
