<svg width="65" height="65" viewBox="0 0 65 65" fill="none" xmlns="http://www.w3.org/2000/svg">
<g clip-path="url(#clip0_15_8516)">
<path d="M32.3086 64.0691C49.9817 64.0691 64.3086 49.7422 64.3086 32.0691C64.3086 14.396 49.9817 0.0690918 32.3086 0.0690918C14.6355 0.0690918 0.308594 14.396 0.308594 32.0691C0.308594 49.7422 14.6355 64.0691 32.3086 64.0691Z" fill="#F0F0F0"/>
<path d="M6.92864 12.5872C4.41501 15.8575 2.51964 19.6269 1.41602 23.7218H18.0633L6.92864 12.5872Z" fill="#0052B4"/>
<path d="M63.2076 23.7217C62.1039 19.6269 60.2084 15.8575 57.6949 12.5872L46.5605 23.7217H63.2076Z" fill="#0052B4"/>
<path d="M1.41602 40.417C2.51977 44.5117 4.41514 48.2811 6.92864 51.5514L18.0629 40.417H1.41602Z" fill="#0052B4"/>
<path d="M51.7927 6.68487C48.5223 4.17124 44.7531 2.27587 40.6582 1.17212V17.8192L51.7927 6.68487Z" fill="#0052B4"/>
<path d="M12.832 57.4553C16.1024 59.9689 19.8718 61.8643 23.9665 62.968V46.321L12.832 57.4553Z" fill="#0052B4"/>
<path d="M23.9664 1.17163C19.8717 2.27538 16.1023 4.17076 12.832 6.68426L23.9664 17.8186V1.17163Z" fill="#0052B4"/>
<path d="M40.6582 62.968C44.753 61.8643 48.5223 59.9689 51.7926 57.4554L40.6582 46.321V62.968Z" fill="#0052B4"/>
<path d="M46.5605 40.4172L57.6949 51.5517C60.2084 48.2815 62.1039 44.512 63.2076 40.4172H46.5605Z" fill="#0052B4"/>
<path d="M64.0436 27.8972H36.4886H36.4885V0.34192C35.1221 0.164045 33.7291 0.0710449 32.3145 0.0710449C30.8996 0.0710449 29.5068 0.164045 28.1406 0.34192V27.8969V27.897H0.585328C0.407453 29.2634 0.314453 30.6564 0.314453 32.071C0.314453 33.4859 0.407453 34.8787 0.585328 36.2449H28.1403H28.1405V63.8002C29.5068 63.978 30.8996 64.071 32.3145 64.071C33.7291 64.071 35.1221 63.9782 36.4883 63.8002V36.2452V36.245H64.0436C64.2215 34.8787 64.3145 33.4859 64.3145 32.071C64.3145 30.6564 64.2215 29.2634 64.0436 27.8972Z" fill="#D80027"/>
<path d="M40.6602 40.4188L54.9397 54.6983C55.5964 54.0418 56.2229 53.3554 56.8207 52.6439L44.5954 40.4187H40.6602V40.4188Z" fill="#D80027"/>
<path d="M23.9671 40.4197H23.9669L9.6875 54.6991C10.344 55.3558 11.0304 55.9823 11.7419 56.58L23.9671 44.3546V40.4197Z" fill="#D80027"/>
<path d="M23.9652 23.7242V23.724L9.68569 9.44434C9.02894 10.1008 8.40244 10.7872 7.80469 11.4987L20.0301 23.7241H23.9652V23.7242Z" fill="#D80027"/>
<path d="M40.6602 23.7241L54.9398 9.44435C54.2833 8.7876 53.5969 8.1611 52.8854 7.56348L40.6602 19.7888V23.7241Z" fill="#D80027"/>
</g>
<defs>
<clipPath id="clip0_15_8516">
<rect width="64" height="64" fill="white" transform="translate(0.308594 0.0688477)"/>
</clipPath>
</defs>
</svg>
